<?xml version="1.0" encoding="UTF-8"?>
<svg version="1.1" viewBox="0 0 1592 1592" width="1280" height="1280" xmlns="http://www.w3.org/2000/svg">
<path transform="translate(799,121)" d="m0 0 5 1 7 5 5 8v3l19-6 18-3h19l16 3 13 5 13 8 15 5 12 7 7 6 8 11 4 4 18 10 13 10 7 7 7 11 3 7 1 5v8h16l11-5h3l-2 11-6 12-3 3 2 4 8 9 5 11 2 6 2 18 1 4v13l-1 7 10 6 4 2-3 5-6 5 338 1 10 3 8 6 7 9 3 10v127l-2 615-2 8-4 8-9 9-4 3 16 8 10 8 9 10 10 17 13 23 16 28 14 25 12 21 13 23 16 28 14 25 14 24 11 20 2 8v15l-1 21-2 10-4 10-7 7-11 6-11 3h-1472l-11-3-11-6-7-7-5-12-1-6-1-20v-17l4-13 14-24 12-22 28-49 14-25 14-24 12-22 14-24 15-27 9-14 9-10 11-8 14-7-5-4-8-8-5-10-1-6-2-615v-127l4-12 9-10 10-5 5-1h415v-7l-2-10-1-11v-11l2-10 11-22-5-9-1-4v-13l6-18 3-5h2l5 10 4 4 1-15 4-15 6-11 9-10 8-5 12-3 2-7 7-9 8-8 8-5 14-5 5-1h8l-2 10 15-8 16-6 20-5 14-7 3-4z" fill="#030304"/>
<path transform="translate(227,1148)" d="m0 0h64l3 8h186l2-8h626l2 8h186l3-8h64l15 2 16 5 14 7 10 8 7 8 14 25 28 49 14 25 12 21 13 23 16 28 10 18 12 21 13 23v29l-1 14-3 9-6 7-9 5-8 2h-1471l-11-4-8-6-5-7-2-12-1-21v-12l4-10 10-17 14-25 13-23 12-21 13-23 14-25 28-49 14-25 11-19 9-10 13-9 14-6 17-4z" fill="#9A9A9A"/>
<path transform="translate(219,430)" d="m0 0h374v39l3 17 5 15 13 24 7 9 8 5 8 2 3 26 2 12 5 16 8 18 10 16 9 11 9 10 15 15 11 9 8 6-2 2-9 2-6-1-39 8-25 5-23 5-15 3-21 7-11 8-7 7-9 13-9 16-14 27-35 70-11 23-15 31-9 21-4 16-3 45-4 42v51h-225l-1-134-1-315z" fill="#FBEAA9"/>
<path transform="translate(1021,430)" d="m0 0h350v202l-1 329-1 120h-451l2-7 1-8 1-33 3-45 4-31 8-54 5-38 2-10 1-10 4 2 19 13 16 12 29 19 19 12 21 13 28 17 11 5 10 3h22l12-3 14-7 10-9 7-8 8-16 7-17 12-28 6-15 9-27 4-18 3-14 8-19 2-7v-16l-3-8-7-9-2-2 1-9 4-15 11-9 7-7 11-14 5-4 10-4 36-12 5-6v-9l-5-6-3-1h-7l-31 7-3-1 27-18 12-9 4-4 1-2v-8l-4-6-3-2h-10l-28 16-13 8-2-1 10-13 20-28 4-8v-10l-4-5-4-2h-9l-8 7-12 15-10 14-9 11-4 3 2-12 7-28 2-11v-12l-3-6-4-2h-12l-5 4-4 13-5 22-9 25-7 14-5 7-5-4-4-9-6-12-4-5-8-6-7-3h-9l-6 6v7l4 7 4 5 6 13 1 3v25l2 13 7 19-2 5-10 23-10 5-5 4-2 4-1 13-12 5-8 6-8 14-5 15-3 11-3 16-6-2-22-12-32-17-28-15-21-10-24-9-17-5-11-4-21-6-24-8-9 1v-2l23-12 12-8 12-9 14-12 12-14 10-15 7-15 7-19 2-7 13-2 12-6 2-4 9-9 7-8 7-10 8-16 7-22 3-15v-18l-4-13-4-6-6-4 2-6z" fill="#FCF4D8"/>
<path transform="translate(1155,666)" d="m0 0h8l17 4 18 8 12 9-1 8-6 23 2 5 6 5 5 9 1 3v10l-4 13-7 16-5 25-8 26-10 25-13 30-9 20-7 9-7 7-12 7-16 4h-11l-12-3-16-8-28-17-24-15-23-15-19-13-14-10-18-13-6-4v-34l-4-19-2-1-1 18-5 46-16 110-4 33-3 44-1 34-3 12-4 5h-18l-10-4-24-6-13-2h-13l20 2 20 4 16 5v1h-186l3-2 22-6 29-4 33-2h-23l-30 4-19 4-20 6h-84l-1-3v-59l-5-56-4-26-1-4-7 15-5 12 2 36v37l-2 24-2 10-1 14h-124l-2-6-1-10v-20l2-29 5-58 1-17 4-14 12-26 28-58 39-78 11-20 10-14 9-9 10-5 8-2h13l13 4 9 6 5 4 15 6-5-9-10-10-13-7 4-2 73-15h2l8 13 9 10 14 10 16 8 16 6 15 4 12 2 11 1h24l15-2 13-4 11-6 7-8 4-11v-12l33 10 41 13 25 11 20 10 22 12 23 12 22 12 12 7-1 11-3 5-5 6-2 12 3 16 8 19 7 11v2h5l-10-31-3-12v-12l8-8 9-46 5-18 7-14 7-6 15-6h2v-17l5-4 10-4 5-12 7-16z" fill="#121212"/>
<path transform="translate(244,1168)" d="m0 0h1099l5 8 12 27 14 30 12 26 15 33 7 16v3h-1228l-1-3 18-37 12-26 13-29 17-37z" fill="#474B4D"/>
<path transform="translate(201,357)" d="m0 0h413l2 20 4 17 1 5-9 2-8 6-6 9-3 9-1 6-375-1 1 202 1 315v134l226-1v2h135v-14l3-18 1-16v-37l-2-36 12-28 2 1 3 15 4 35 3 36v62l84-1 28-8 32-5 9-1h23l4 2-37 2-29 4-22 6h180l-13-4-20-4-23-2 3-2h13l18 3 25 7 4 2h482v-120l1-329 1-202h-350l1-6h352l3 2 6 1v479l3 3v7l9 3 7-2 5-1v203l-5 10-9 8-5 2-29 1-1 1v5l3 2h-62l-1 7-2 2h-186l-2-4v-5h-626l-1 8-1 1h-186l-3-5v-4h-63l4-1v-6l-1-1-29-1-8-4-7-7-4-11-2-695v-45l3-8 6-7 7-4z" fill="#35363A"/>
<path transform="translate(227,1148)" d="m0 0h64l3 8h186l2-8h626l2 8h186l3-8h64l15 2 16 5 14 7 10 8 7 8 14 25 28 49 14 25 12 21 13 23 16 28 10 18 12 21 13 23v15l-5 5-5 4-10 4-4 1h-202l-238-1-179-1-55-1 1-2 4-1 1-2 3-3h393l5-5 9-7h2v-2l14-11 9-7 3-1v-2h2v-2l4-1v-2h2v-2l8-7 6-5h2v-2h2v-2h2v-2h2v-2h2v-2h2v-2l8-7 7-7 1-2h2v-2h2v-2h2v-2h2l1-3 5-6h2v-2h2v-2h2l1-4h2v-2h2v-2h2l1-4h2v-4l24-1-1-6-15-32-9-20-30-65-8-18-1-1-1099-1-2 6-45 99-17 35v4h24v4h2l1 4h2v2h2v2h2l3 4v2h2v2h2v2h2l3 4v2h2v2h2v2h2v2h2v2h2v2h2v2h2v2h2v2h2v2h2v2h2v2h2v2h2v2h2v2h2v2h2v2l4 2 5 4v2l4 2 3 2v2h2v2h2v2l4 1v2h2v2l3 1 16 13 7 5v2l4 1v2l3 1 3 2 52 2 147 4 292 1v2h-2l1 3-4 3-129 1-179 1-238 1h-203l-11-4-7-6-5-10v-9l14-25 26-46 12-21 13-23 14-25 28-49 14-25 11-19 9-10 13-9 14-6 17-4z" fill="#9A9A9A"/>
<path transform="translate(1215,782)" d="m0 0 3 1 1-1h6l2 1v2h4l2 3 5 5 2 3 1 7-1 4 2 7 1 5 10 3 16 1h78l12 3 5 2 6 7v126l-1 120h-451l2-7 1-8 1-33 3-45 4-31 8-54 5-38 2-10 1-10 4 2 19 13 16 12 29 19 19 12 21 13 28 17 11 5 10 3h22l12-3 14-7 10-9 7-8 8-16 7-17 12-28 6-15 9-27 4-18z" fill="#97BBCC"/>
<path transform="translate(731,276)" d="m0 0 4 1 10 5 13 4 12 1 15 7 16 5 19 3h20l14-1 10-2h10l2 1h17l11 2 8 1 38 1 8 8 8 11 8 15 2 5 2 14 6 18-5 2v19l1 7v30l-8 62-2 16-6 25-6 17-8 15-10 14-8 9-5 3-2-1 2-8-6 8-6 7-5 3h-2l-1-6-6 9h-1l-3-11-6-9-7-6-15-6-8-1h-66l-21-5-23-7-16-3h-19l-9 2-10 6-6 7-4 8-2-1-4-11-1 7-4-1-7-11-4-9-1 8-5-5-7-14-4-12-2-8-2-23v-32l2-9 4-33 8-37 7-19 9-19 1-4 1-34 17-12 6-7 5-10 9-3z" fill="#FCCA98"/>
<path transform="translate(220,765)" d="m0 0 20 1 23 3 20 4 24 7 13 5 11 6 12 9 9 9 8 13 3 9 1 6 1 20 3 5 10 3 28 3 24 3 23 3 14 4 8 5 1 2-15 32-6 16-2 10-3 45-4 42v51h-225l-1-134z" fill="#78A5A2"/>
<path transform="translate(201,357)" d="m0 0h413l2 20 4 17 1 5-9 2-8 6-6 9-3 9-1 6-375-1 1 202 1 315v134l226-1v2h135v-14l3-18 1-16v-37l-2-36 12-28 2 1 3 15 4 35 3 36v62l84-1 28-8 32-5 9-1h23l4 2-37 2-29 4-22 6h180l-13-4-20-4-23-2 3-2h13l18 3 25 7 4 2h482v-120l1-329 1-202h-350l1-6h352l3 2 6 1v291l-1 167-1 209h-1163v-7l-3-1-1-334-1-284v-42l3-2 171-1-40-28-17-12-20-14-2-1h-91l-13 2-8 5-4 8-1 3-1 684-1 58h-2l-4-11-2-695v-45l3-8 6-7 7-4z" fill="#272727"/>
<path transform="translate(32,1415)" d="m0 0h1l3 10 6 8 7 4 7 2h203l238-1h596l238 1h202l10-3 8-5 3-1 2-4h1v14l-1 14-3 9-6 7-9 5-8 2h-1471l-11-4-8-6-5-7-2-12-1-21z" fill="#67676E"/>
<path transform="translate(1215,782)" d="m0 0 3 1 1-1h6l2 1v2h4l2 3 5 5 2 3 1 7-1 4 2 7 1 5 10 3 16 1h78l12 3 5 2 6 7v126l-1 41-1 10-3 1-2 3-5 2h-6-3l-3 1-5-1h-35l-2-1-1 2-5-1h-8-3l-4 1h-3-3-3-3-3l-3-1h-3l-3 1h-3-3-3l-3-1h-3l-3 1h-3l-7-1-3 1-4-1h-3l-3 1-4-1h-3l-3 1h-3l-3-1h-3l-3 1h-3l-4-1-5 1-4-1h-3l-3 1h-3l-6-2-1 2-5-1h-5l-5-1v-2h-3l-5-5-4-2 2-1-2-5-3-4-1-8-1-4 1-2v-14l1-3-2-1h2l-1-5v-22l12-5 10-7 9-9 7-11 11-26 12-28 6-15 9-27 4-18z" fill="#C39070"/>
<path transform="translate(227,1148)" d="m0 0h64l1 8-6 1-41 2-15 2-13 4-14 7-8 7-6 9-10 18-12 21-10 17 1 5 3 6 2 5 1 4h2l2 6h2l1 4h2l6 9 4 5 4 3-1 5-6 12v4h24v4h2l1 4h2v2h2v2h2l3 4v2h2v2h2v2h2l3 4v2h2v2h2v2h2v2h2v2h2v2h2v2h2v2h2v2h2v2h2v2h2v2h2v2h2v2h2v2h2v2h2v2l4 2 5 4v2l4 2 3 2v2h2v2h2v2l4 1v2h2v2l3 1 16 13 7 5v2l4 1v2l3 1 3 2 52 2 147 4 292 1v2h-2l1 3-4 3-129 1-179 1-238 1h-203l-11-4-7-6-5-10v-9l14-25 26-46 12-21 13-23 14-25 28-49 14-25 11-19 9-10 13-9 14-6 17-4z" fill="#AEAEAE"/>
<path transform="translate(563,760)" d="m0 0 11 2 11 7 7 6 3 5 4 4 4 7 8 13 12 24 2-2 5-14 12-3-2 9-19 55-16 41 2 13 5 28 4 38 2 25v64h-10l-1-3v-59l-5-56-4-26-1-4-7 15-5 12 2 36v37l-2 24-2 10-1 14h-124l-2-6-1-10v-20l2-29 5-58 1-17 4-14 12-26 28-58 39-78 5-2 6-3z" fill="#111"/>
<path transform="translate(803,138)" d="m0 0 3 1 2 7-4 5-3 9 15-10 11-5 15-4 7-1h28l12 3 8 4v1l-14 2-1 2h10l26 5 10 4 11 8 8 10 4 6 20 11 12 9 8 8 6 10 1 3v9l-6-1-10-5 3 5 11 7 8 4 6 2 11 1-1 3-10 8-2 1v3l8 7 8 10 4 10v13l-2 5h-3l4 10 9 14 6 8-3 2h-30l-10-5-7-7-13-22-5-6-10-5 5-5 7-8 4-11-20 9-8 3-13 4-7 1 5-5 6-10 4-13v-9l-6 8-10 6-6 3-4-1 8-11 3-11v-14l-5-12-2-4v3l2 5v10l-3 13-7 12-9 9-10 7h-2l2-12 2-18 2-9 5-10-4 3-11 4-8 7-4 9-3 13-5 12-8 7-11 5h-5l-10-9-7-10-6-14v-17l5-12 12-22 6-14 1-2h-2l-7 8-8 8-14 11-11 10-6 11-1 3v13l4 13 7 13v2l-9-3-10-7-7-7-6-12v-15l2-9 3-6-5 5-5 8-4 13v14l6 12-5-2-13-11-9-9-8-14-5-19-2 7v21l3 10 1 4-5-2-9-9-7-14-2-13-1 1v20l3 10 6 8 1 2-10-2h-8l-15 4-10 6 20 1 5 1-4 3-17 6-11 2-28 1 14 8 7 2 9 1-2 5-7 9-11 12-5 5 6 1 3 2-1 13-7 14-3 2-6-1-8-8h-2l-6 9-2 4h-1v-10l4-17 5-13 1-5h-2l-2 5-5 8-2-3v-21l5-13 7-10 5-7-4-2-6-10-1-2v-9l1-3 5 2 12 4h12l8-4 13-9 4-2-22-1-7-3-2-2v-10l2-12 7-10 7-6 7-3h11l2-9 7-12 10-8 6-3h3v32h3l1-8 4-9 8-8 14-8 13-5 12-4 16-4 12-6z" fill="#272B2B"/>
<path transform="translate(1039,357)" d="m0 0h350l8 3 8 7 4 9v47l-1 488-1 5-11 4-9-2-2-4v-6l-3-2v-188l1-291h-6l-3-2-351-1 2-10 11-38z" fill="#282A2C"/>
<path transform="translate(1048,508)" d="m0 0 4 2 3 3h3l4 7 3 1h2l2 4 3 1 10 10h3l2 3 10 10 3 1 4 2 2 5h4l2 5h4l1 5 2 1 3 9 7 9 6 13 1 3v25l2 13 7 19-2 5-10 23-10 5-5 4-2 4-1 13-12 5-8 6-8 14-5 15-3 11-3 16-6-2-22-12-32-17-28-15-21-10-24-9-17-5-11-4-21-6-24-8-9 1v-2l23-12 12-8 12-9 14-12 12-14 10-15 7-15 7-19 2-7 13-2 9-3 5 7 5 5 5 7h2l4 6 7 9 1 2h2l1 3 5 2 2 2 3 1 1-2v2l3-3 4-7 1-7 1-1v-9h2l-1-6v-3l1-4v-6l1-5v-6l1-3v-6l1-4v-9l1-2v-14l1-4v-3l2-6 4-1z" fill="#FCEEC0"/>
<path transform="translate(1368,445)" d="m0 0h3v187l-1 203-4-2-5-5-9-3-11-1h-80l-9-1-7-3-3-3-2-9-1-2 1-6-2-6-4-3-4-2-1-4h-8v-3l-3 3-2-2 1-6 7-17 2-7v-16l-3-8-7-9-2-2 1-9 4-15 11-9 7-7 8-10 1 2 5 1 5-1 2 2 2-2 2 2h7l4-1 1-2 5 1 18-6v-2h3l2-2 5-4 4-2v-2l3-1 4-6 6-6 2-5 5-9 2-9 2-6v-10l1-2-1-6v-3l-1-5-1-8-2-2-1-6-3-3-4-9-3-3-7-8-3-1-5-5-3-2v-2l-6-2-4-3v-2l-2-1-2-5-2-1-1-5h2l2-5 20-18 11-9 14-12 14-11 15-12z" fill="#FBEAA9"/>
<path transform="translate(576,1324)" d="m0 0h437l1 3h-3l9 49v8h-451v4h224v25l-229 1-1 3h-3l1-15 4-20 10-56z" fill="#868888"/>
<path transform="translate(646,524)" d="m0 0 2 3 3 11 5 13 6 10 1 1 1-9 2 2 10 20 4 1v-8l2 1 4 11 7-11 8-7 9-4 6-1h19l16 3 26 8 18 4h66l11 2 12 5 10 9 5 9 2 8 6-9h1v7l9-6 8-10 3-3-2 9 7-4 8-9 11-17 4-8 1 4-8 25-6 17-8 16-7 11-11 13-10 10-17 13-20 12-16 8h-2l2-9v-6l-10 16-7 6-6 1 2-8-7 9-3 2-17 2h-12l-24-3-18-5-6-4-9-17 1 8 1 6-5-2-10-19-2-7v17l-4-2-13-11-13-12-12-13-11-15-9-16-6-15-4-15-3-25-1-13z" fill="#191A1A"/>
<path transform="translate(1384,1153)" d="m0 0 7 1 12 5 13 9 7 7 10 17 14 25 14 24 16 29 28 49 10 18 12 21 26 46 4 7v15l-5 5-5 4-10 4-4 1h-202l-238-1-179-1-55-1 1-2 4-1 1-2 3-3h484l13-13 8-7 3-1v-2l8-7 22-22 1-2h2l2-4 7-8h2l2-4 9-10 9-11 12-15 10-13 10-14-2-6-9-16-12-22-13-24-9-16-13-24-9-16-9-10-9-6z" fill="#BABBBB"/>
<path transform="translate(201,357)" d="m0 0h413l2 20 4 17 1 5-9 2-8 6-6 9-3 8h-106l-15-11-19-13-18-13-23-16-4-3-70-1v2l5 2 18 13 19 13 17 12 20 14v1h-31l-15-11-16-11-20-14-17-12-12-8h-91l-13 2-8 5-4 8-1 3-1 684-1 58h-2l-4-11-2-695v-45l3-8 6-7 7-4z" fill="#505155"/>
<path transform="translate(217,367)" d="m0 0h91l12 8 17 12 40 28 11 8v1l-172 1-2 1v42l1 297v196l-2-3v-22l1-83h-3v2h-4l-1 2-5-1-7-2-2-10-2-1v-457l4-10 6-5 8-3z" fill="#27292B"/>
<path transform="translate(227,1148)" d="m0 0h64l1 8-6 1-41 2-15 2-13 4-14 7-8 7-6 9-10 18-12 21-13 23-14 25-6 10-13 23-15 27-14 24-12 22-10 17-1 3v8l5 5 7 2 127 4 56 1 47 2 60 1 147 4 292 1v2h-2l1 3-4 3-129 1-179 1-238 1h-203l-11-4-7-6-5-10v-9l14-25 26-46 12-21 13-23 14-25 28-49 14-25 11-19 9-10 13-9 14-6 17-4z" fill="#D3D4D3"/>
<path transform="translate(32,1415)" d="m0 0h1l3 10 6 8 7 4 7 2 222 1v23l-1 1-1 12h1030l-1-36 228-1 10-3 8-5 3-1 2-4h1v14l-1 14-3 9-6 7-9 5-8 2h-1471l-11-4-8-6-5-7-2-12-1-21z" fill="#3C3F41"/>
<path transform="translate(299,1124)" d="m0 0h185l1 1-1 13h622l-1-13 1-1h185l5 8 2 6 61 1-1 7 3 2h-62l-1 7-2 2h-186l-2-4v-5h-626l-1 8-1 1h-186l-3-5v-4h-63l4-1v-6l-1-2 61-1 5-12z" fill="#1B1C1D"/>
<path transform="translate(220,765)" d="m0 0 20 1 23 3 20 4 24 7 13 5 11 6 12 9 9 9 8 13 3 9 1 6 1 20 3 5 10 3 28 3 24 3 23 3 14 4 8 5 1 2-7 15-4-1-2-4-4-1-3-2h-3l-9-1-3-1h-17l-5 3-8 12-5 5-6 4-8 2h-15l-11-3-12-6-7-9-2-10 4-11-1-7-1-3-2-1v-4l1-11v-14l-2-6v-4l-2-1-3-5-2-2-5-6-4-2v-2l-6-2v-2l-4-1-6-3-4-1-5-2h-2l-4 1-5 5-7 15-9 27-6 20-6 15-8 16-6 10-8 12-10 12 1 4 4 4 9 1 10-4 8-4 9-2 12-1h26l32 6 17 5 13 5 5 4 1 4-8 5-32 3h-34l-24-2h-13l-11 7-12 3-17 2h-7l-1-24z" fill="#83AE9E"/>
<path transform="translate(945,845)" d="m0 0 4 2 19 13 16 12 29 19 19 12 21 13 28 17 11 5 10 3h22l9-1 1 4v42 4l1 8 3 4 2 6 5 5-1 3-4 2-1-4-7-6-2-4-2-2-2-9-3-1-1-5-3-2-2 1-2-3-5-1-183-1v-11l7-46 8-59 2-10z" fill="#FBEAA9"/>
<path transform="translate(1021,430)" d="m0 0h126l-4 2-1 2-9 5-3 10 2 23 1 20 2 21 2 18 3 6 2 9 1 4-1 5-3 5-12 1-5 5-2 7-2-4-3-4-5-5-4-1-2-5-4-1v-2l-5-2-7-8h-2l-2-2-3-1-4-6h-2v-3l-7-2-2-3-3-4-1 2-4-6h-2l-4-4h-2l-2-2-4 2-2 6-1 13v8l-1 1v12l-1 1v11h-2l1 8-1 1v13l-1 1v5l-1 3v6l-2 7-2 4-4 7h-5l-2 1-3-3v-2l-4-1v-3l-3 1v-3l-2-1-2-5-3-1-3-4-6-7-2-4-2-1-6-7-3-5 4-2 2-4 9-9 7-8 7-10 8-16 7-22 3-15v-18l-4-13-4-6-6-4 2-6z" fill="#F1F0EF"/>
<path transform="translate(341,554)" d="m0 0 7 1 6 2 2 2 1 2 4 2 3 8 1 4-2 6 2 1 2 4 2-4 3-2h3l1-2 5-2 7-2 4 1v2h6l5 3 5 4 3 6 1 8 1 5 1 7 2 10 1 8 1 9 1 5v6l1 2-1 3 2 1-1 4-2 4-7 7-4-1-2 2-5-1-5 1-1 2-2-1-2 2-2-4-2-1-1-4-4-3-3-4v-3l-2-2-1-6h2l-1-6-2-2-1-8 1-4-1-5v-4l-2-1-1-9v-5l-2-2-1-5-2-4-4 4h-2v4l-2 14 2 1-1 9 2 1v6l1 5-1 6 2 1v8 4l-1 6-2 4h-2l-1 6h-4l-2 3-4-1-5 1h-2l-1-2-4-2-2-2h-2l-1-7-2-2v-6l-1-5-2-6v-5l-5-5-2 1-1 2h-2v7l-3 5-1 7 2 9 2 7-2 1-1 2h-3l-1 2-7 2h-3-23l-2 1-10-2-5-2-3-3v-3l-2-1 3-7 1-9-2-11-2-7h-2v-4l-5-3-5-11-1-9 2-7h2l1-4h2l2-4 3-4h2l2-4 8-8 5-1 5-2 9-2 6-1h3l1 2 7 1 9 5 6 1 3-6 2-7h2l2-5 6-3h6z" fill="#C5D9D4"/>
<path transform="translate(535,1276)" d="m0 0h469l3 17 2 14h-480l1-10z" fill="#747575"/>
<path transform="translate(927,981)" d="m0 0h185l6 3 5 2 1 6 4 4 2 7 3 4 5 6h2l1 4 2-2h3l1-2 3 2 4 1 9 1h6 3l3 1h3l5-1h3 5 3l3 1h3l3-1h3l3 1h3l5-1h3l3 1 4-1h3 6 3l3 1h3l3-1h3l5 1h3l3-1h3l3 1 4-1h3l5 1h3l4-1h3 55 3l3 1 12-3 4-7 1-6h1v31l-3 1-14 1h-206l-6-2-4-1-2-2-3-2v-2l-3-1-1-1-2 4-6 2h-196v-14l2-28z" fill="#C1DBD5"/>
<path transform="translate(445,430)" d="m0 0h148v39l3 17 5 15 6 11v6h-3l-2-2-4-2-1 2-2-1v-2l-3 1-3-1-2-2h-3v-2h-3l-1 2-2-3-2 1-2-2h-3l-1-4-3 1v-3l-3 2v-3h-8-4l-5 3-4 2-2 3-5 5-2-1v2l-5 5-5 3-5 5-3 1-2 4-4 2-4 4-7 6-6 4-6 6-14 12-5 4-2 1-2-1-1 2-4 2h-7l-2-6-1-5v-9l-1-4 2-2-1-4 2-2v-7l1-4 1-2 1-3-2-2 2-7 2-6-1-4h2v-3l-2-2 2-7 2-5-2-2h2v-2l-2-2 3-3-1-5 1-10 1-8 1-12h-2l-1-7-4-3-5-1-2-3z" fill="#FBDAC0"/>
<path transform="translate(1439,1234)" d="m0 0 4 5 12 23 8 14 10 18-2 4-9 13-7 9-10 13-9 11-13 15-3 4h-2l-2 4-7 8h-2l-2 4-27 27h-2v2l-8 7-10 9-6 6h-90v-3l13-10h2v-2l14-11 9-7 3-1v-2h2v-2l4-1v-2h2v-2l8-7 6-5h2v-2h2v-2h2v-2h2v-2h2v-2h2v-2l8-7 7-7 1-2h2v-2h2v-2h2v-2h2l1-3 5-6h2v-2h2v-2h2l1-4h2v-2h2v-2h2l1-4h2v-4l24-1-1-6-5-11 1-4 3-3h2l2-5 3-5h2l1-4h2l2-5 3-5h2l2-6h2l2-6 3-5h2l1-7z" fill="#ADADAD"/>
<path transform="translate(1377,427)" d="m0 0h6v291l-1 167-1 209h-1163v-7l1156-1 1-207 1-329z" fill="#767679"/>
<path transform="translate(1384,1153)" d="m0 0 7 1 12 5 13 9 7 7 10 17 14 25 14 24 16 29 28 49 10 18 12 21 26 46 4 7v15l-5 5-5 4-10 4-4 1h-202l-238-1-179-1-55-1 1-2 4-1 1-2 3-3h225l131 1h295l10-4 3-3h2l2-6-1-7-12-23-13-23-16-30-12-22-13-24-8-14-12-22-13-24-9-16-13-24-9-16-9-10-9-6z" fill="#D2D3D2"/>
<path transform="translate(1126,1023)" d="m0 0h2l5 6 2-1 2 2 5 1v2h6l5 1h206l10-1v22l-3 1h-154l-9-1h-280v-25l5-1h192l5-2z" fill="#A5C4D1"/>
<path transform="translate(1208,521)" d="m0 0h6l3 3v10l-3 17-6 23-2 11v10l1 1 7-1 10-9 10-13 13-18 11-12h6l3 3-1 7-8 12-15 20-13 18-3 5v6l5 1 12-6 41-24 5 1 2 2v6l-13 10-26 17-14 9-1 7 1 1h9l37-8 10-1 3 3-1 4-3 3-35 11-14 7-7 8-8 10-9 9-4-1-12-9-14-7-18-6-21-3-7-19-2-10-1-29-5-13-7-11-2-3 1-5h7l9 6 7 9 6 15 9 10 5 5 6 7 5 10 1 4v10l-1 7 3 1 2-7v-12l-4-11-6-9-4-5 2-5 7-10 8-18 7-22 6-26z" fill="#FAC997"/>
<path transform="translate(321,557)" d="m0 0 2 1-1 4-8 18-16-8-9-2h-9l-7 2-5 2-2 1-2-1-1 2-6 5-4 5-9 9-4 10v6l4 10 1 4 4 1 3 4-1 1 2 1 4 17v7l-3 10 2 5 5 3 9 1h3 24 3l7-2 6-4-2-9-2-7 2-11 2-1 1-7 4-4 4 2 3 5-1 2 2 1v5l1 5 2 8 1 1v5h2l4 6h5l1 2 5-2h4l2-2h3l1-4h2l2-9-1-5v-3-9l-1-5 1-6-2-1-1-13-1-5h2l-1-7 1-6 2-2 4-1 2-4 1 7 2 1 2 7-1 4 2 1 1 9 1 8 1 5 1 9 1 5 1 9 2 5 5 5 2 3-1 2 6 2 7-1h3l2 1 1-2 5-2 2 2v-2l3-3 3-1 1-4 2-5 5-2 3 3 7 2 8 6 2 4v10l-3 5-6 5-14 4-24 6-9 2-14 1h-156v-45l11-1 6-3 2-7-5-17-4-13 1-12 2-5h2l2-5 3-1 2-4 3-1 2-4 3-4h2l2-4 7-5 16-4 7-1h12l11 2h4l4-4 3-1z" fill="#FCCC9A"/>
<path transform="translate(798,142)" d="m0 0m-2 1 2 1-5 6-16 8-17 5-12 3-9 5-5 5-6 8-4 8-3 11 7-11 9-10 5-4 10-4 10-3 4 1-13 7-9 8-4 8-1 4v9l1 7h-2v7h-1l-1-5-2 7v21l3 10 1 4-5-2-9-9-7-14-2-13-1 1v20l3 10 6 8 1 2-10-2h-8l-15 4-10 6 20 1 5 1-4 3-17 6-11 2-28 1 14 8 7 2 9 1-2 5-7 9-11 12-5 5 6 1 3 2-1 13-7 14-3 2-6-1-8-8h-2l-6 9-2 4h-1v-10l4-17 5-13 1-5h-2l-2 5-5 8-2-3v-21l5-13 7-10 5-7-4-2-6-10-1-2v-9l1-3 5 2 12 4h12l8-4 13-9 4-2-22-1-7-3-2-2v-10l2-12 7-10 7-6 7-3h11l2-9 7-12 10-8 6-3h3v32h3l1-8 4-9 8-8 14-8 13-5 12-4 16-4z" fill="#272A2A"/>
<path transform="translate(718,573)" d="m0 0h8l15 4 18 6 14 4 20 3 11 1h65l6 3 4 4v8l-4 13-6 10-9 9-14 7-10 3-4 1-16 1-2 2-4 1h-24l-15-4-6-4-1-3-12-1-12-5-11-8-10-9-8-11-3-8v-13l3-8 5-5z" fill="#070808"/>
<path transform="translate(412,368)" d="m0 0h202l5 23 2 8-9 2-8 6-6 9-3 8h-106l-15-11-19-13-18-13-23-16z" fill="#595B5C"/>
<path transform="translate(121,1306)" d="m0 0 1 2h2l9 12 11 14 12 14 5 6v2h2l9 11 11 11 7 8 16 16 8 7 6 5v2l4 2v2l3 1h-19l-104-3-23-1-8-3-5-5v-8l6-12 14-24 15-27 13-23z" fill="#BABBBB"/>
<path transform="translate(32,1415)" d="m0 0h1l3 10 6 8 7 4 7 2 222 1v23l-1 1-1 12h-221l-12-6-7-8-2-6-1-8-1-21z" fill="#525357"/>
<path transform="translate(448,984)" d="m0 0h1v15l-3 31v51h-225v-29h24l9-2 17-1 21-2 49-4 43-3 29-2 16-3 7-4 3-6 5-30z" fill="#98BCCC"/>
<path transform="translate(190,509)" d="m0 0h15l7 1 1 9v31l2 181v230l-2-3v-22l1-83h-3v2h-4l-1 2-5-1-7-2-2-10-2-1z" fill="#2D2E31"/>
<path transform="translate(1227,850)" d="m0 0 4 3 6-1h99l8 4 2 5 1 9v15l3 13 1 3v9l-5 6-7 2-12 1h-60l-33-1-9-2-4 1-2-1-1 2-3-1 4-8 2-5v-3-3h2l1-9-2-3h2v-5l1-2-1-5 1-7-1-9 1-4-1-2h3z" fill="#BD846D"/>
<path transform="translate(1215,782)" d="m0 0 3 1 1-1h6l2 1v2h4l2 3 5 5 2 3 1 7-1 4 2 7 1 5 10 3 16 1h78l12 3 5 2 6 7v126l-1 41-1 10-3 1-2 3-5 2h-6-3l-3 1-5-1h-35l-2-1-1 2-5-1h-8-3l-4 1h-3-3-3-3-3l-3-1h-3l-3 1h-3-3-3l-3-1h-3l-3 1h-3l-7-1-3 1-4-1h-3l-3 1-4-1h-3l-3 1h-3l-3-1h-3l-3 1h-3l-4-1-5 1-4-1h-3l-3 1h-3l-6-2-1 2-5-1h-5l-5-1v-2h-3l-5-5-4-2 2-1-2-5-3-4-1-8-1-4 1-2v-14l1-3-2-1h2l-1-5v-22l12-5 10-6 1 7-2 10-1 18v3l1 3-1 5v6l-1 7v11l3 8 2 6 3-1 4 1 2-1v2l6-1h3l4 1 4-2 3 1 4-1h3l6 1 5-1h3 24 3 3 6 3l5 1 2-1h3l11 2 1-2v2l10-2 6 1 5-1 4 1h3l2-2 1 2 3-2 4 1h8 4 6l4 1 4-2 4 1h3l3 1 5-1h3l4 1 6-4h2l-1-3 1-5v-4l2-5-2-1 1-1-1-6v-3l1-3v-3-24-3l-1-7-1-5-1-3-2-4 2-7 1-5 1-7v-15l-1-5v-35l-2-7v-3l-4-2-10-1h-5l-3-1h-90l-5-1-1 2-5-1-7 2h-5l-3-3h-3l-3-1-2 2-5-1h-3l-3-3 1-7 6-18 4-18z" fill="#D8A578"/>
<path transform="translate(1271,519)" d="m0 0h3l5 6 3 3 4-1 16 8 3 3 4 3 3 1 7 8 1 3 2 1 5 7 3 6 3 7 2 10 2 7-1 4 1 4-1 4 1 5-2 7-1 5h-2v6l-4 8-3 3-1 4-5 4-2 3-8 9-6 3-1 2-3 1-2-1v2l-6 3-9 3-4 1h-3l-9 2h-5-3l-3-2-5 1-4-2 1-5 6-5 10-4 36-12 5-6v-9l-5-6-3-1h-7l-31 7-3-1 27-18 12-9 4-4 1-2v-8l-4-6-3-2h-10l-28 16-13 8-2-1 10-13 20-28 4-8v-10l-4-5-4-2h-9l-8 7-12 15-10 14-9 11-4 3 2-12 7-28 3-13 6-4 3 1 3-4v3h3l1-5 4 3 1-4v2h2l1-2h2l2 2h6l5-3 6-1z" fill="#E8E5DE"/>
<path transform="translate(222,774)" d="m0 0 10 1h3l7 1 5 1h3l6 1 2-1v2l3-1 20 4 8 2 9 3 8 2-1 4-5-1v2l-7 4-8 14-7 18-10 34-6 15-8 17-14 21-6 6h-2v2l-9 6-2-1-1-7v-148z" fill="#8BB6BF"/>
<path transform="translate(555,498)" d="m0 0 1 2h2l1-2 6 2v2l2-2 5 5 3-1 2 3 4 2h7l2 2 3 2 4-1 1 2h4l4 2-1-1 3-1 8 14 6 7 7 4 8 2 1 11-3-3-12 14-10 13-11 13-7 9-14 17-7 8-9 3-3-1v-2h-2l-2-5-3-13-1-19-1-18v-13l-1-5v-3l-1-17-1-5-1-6-2-3-4-1-6 3h-2v2l-9 7-4 3h-2l-2 4-6 5h-3l-2 4-4 3h-2l-2 4-5 4h-2l-1 2-7 6h-2l-2 4-10 8h-3v2l-7 4h-6l-1-5h-4l1-2 3 1 1-2h7l2-2 4-1 5-4 5-3 2-4 4-1 4-4 2-1v-3l4-2 2-2 4-1 1-2 6-5 5-5 4-2v-3l6-2 3-4 6-4 2-3h2v-2l4-1v-2h2l2-4 10-6z" fill="#FDCC99"/>
<path transform="translate(1275,928)" d="m0 0 5 2 4-2 5 1 9 1h4l5-1 3 1 4-1h3l6 1 4-1 7 2h3l6 1 5 2 3 3 1 2 3 1 3 9v7l-1 10-1 6-1 8-1 5-1 7h-2l-1 5-3 3h-2l-2 4-14 2h-41l-4-2 3-4h-3l-2-2h-3l-7-2-8-8v-3l-2-1 1-5v-5l-1-5-1-16v-7l1-5-3-2 1-5 6-4 8-1z" fill="#A09F6F"/>
<path transform="translate(847,186)" d="m0 0 3 1-8 18-13 24-3 8v17l6 14 8 11 8 7 7-1 12-6 5-6 5-12 3-14 5-8 7-6 12-5h3l-7 8-4 14-3 19-4 11-7 8-9 5-15 3-20 2h-12l-18-2-21-6-13-6-12-7-12-11-3-2 2 5 10 11-2 1-10-3-25-13-12-3-9-1v-1l5-1h8l9 2-6-7-3-7-1-5v-20l2-3 1 2 2 13 7 14 8 8 5 3-4-9-1-5v-21l3-9h1l3 15 5 12 7 10 10 10 12 9-2-4-3-7v-14l5-15 7-10 3-1-1 4-2 4-1 7v15l6 12 8 8 8 5 9 4-8-15-4-13v-13l4-9 6-8 10-9 10-8 10-9z" fill="#090D0D"/>
<path transform="translate(1129,940)" d="m0 0 5 1v45 4l1 8 3 4 2 6 5 5-1 3-4 2-1-4-7-6-2-4-2-2-2-9-3-1-1-5-3-2-2 1-2-3-5-1-183-1v-11l3-18 4 2 6 2 2-2 5 1 2 1 2-2 5 1 2 1 2-2 5 1 2 1 2-2 5 1 2 1 2-2 5 1 2 1 2-2 5 1 2 1 2-2 5 1 2 1 2-2 5 1 2 1 2-2 5 1 2 1 2-2 5 1 2 1 2-2 5 1 2 1 2-2 5 1 2 1 2-2 5 1 2 1 2-2 5 1 2 1 2-2 5 1 2 1 2-2 5 1 2 1 2-2 5 1 2 1 2-2h4l3-2 5-1 3-4 1-3-3-2 16-1z" fill="#F4DB9F"/>
<path transform="translate(797,1388)" d="m0 0h224l2 4 3 17v4h-229z" fill="#868888"/>
<path transform="translate(568,1387)" d="m0 0 225 1v25h-229z" fill="#858787"/>
<path transform="translate(278,579)" d="m0 0h16l2 2 5 2 3 3 1 2 3 2 3 3 4 5 5 5 1 5-1 5-2 5-4 2-2 9 2 4v8l-3 5-1 7 2 9 2 7-2 1-1 2h-3l-1 2-7 2h-3-23l-2 1-10-2-5-2-3-3v-3l-2-1 3-7 1-9-2-11-1-9v-2h3l1-5-4-6-1-4-2-1-1-3v-5l4-5 1-3h2l2-4 7-7 8-4z" fill="#A09E6F"/>
<path transform="translate(1048,508)" d="m0 0 4 2 3 3h3l4 7 3 1h2l2 4 3 1 10 10h3l2 3 10 10 3 1 4 2 2 5h4l2 5h4l1 5 2 1 3 9 7 9 4 8-1 3h-3l-2-1v-2l-3 1-4 2-1-2-2 1-3-3-1 2-5-1-3-1-2 2h-2l-1-2h-3l-1-1-5-4-1 2h-2l-5-5-5 1-2-2-5-3-2 2-2-4-3 1-6-4-2 1v-2l-4-1-3 6-3 4-3 9-1 7-2 9-1 11-3 6-5 2-5-2-1 3h-1-3l-2-2-2-4-3 1-4-2-1-3-2 1-4-8h-2v-3l-3-1-2-4-2-1-1-3-2-1v-2h-2v-2h-2l-3-4v-2l-3 1-1-2 2-1-4-2-3-5 1-3 6-2 5 7 5 5 5 7h2l4 6 7 9 1 2h2l1 3 5 2 2 2 3 1 1-2v2l3-3 4-7 1-7 1-1v-9h2l-1-6v-3l1-4v-6l1-5v-6l1-3v-6l1-4v-9l1-2v-14l1-4v-3l2-6 4-1z" fill="#FCF4D8"/>
<path transform="translate(213,1245)" d="m0 0h174l-1 7-6 19-1 1h-178l2-5 6-14z" fill="#747575"/>
<path transform="translate(1305,1440)" d="m0 0h133l1 3-1 6v25l-1 2h-131z" fill="#525357"/>
<path transform="translate(710,414)" d="m0 0h21l13 3 13 5 10 7 6 7 6 12 3 10v5l-11 7-7 4h-12l-14-4-15-3-22-1-11-2-6-4-7-9-3-6v-5l7-9 10-9 12-6z" fill="#7B7F7E"/>
<path transform="translate(879,434)" d="m0 0h19l16 3 14 7 11 11 7 12 2 9-5 6-10 8-4 2h-10l-21-4-9-1-32-1-6-3-5-4-2-5-4-2-2-2 1-5 7-12 7-8 11-7 10-3z" fill="#7A7E7D"/>
<path transform="translate(640,809)" d="m0 0h2l-2 9-19 55-16 41 2 13 5 28 4 38 2 25v64h-10l-1-3v-59l-5-56-4-26-1-4-7 15-5 12 2 36v37l-2 24-2 10-1 14h-10l-1-1v-13l3-17 1-12v-44l-2-33v-11l4-3h2l3-9 17-41 13-35 17-49 1-2z" fill="#010101"/>
<path transform="translate(726,689)" d="m0 0h5l16 8 16 5 18 3 12 1h15l21-3 16-5 6 1 16 6 1 3v7l-3 8-7 8-13 6-15 3h-34l-19-3-17-5-17-7-14-9-10-9-6-7-3-5v-2z" fill="#FBCA97"/>
<path transform="translate(1027,493)" d="m0 0 4 4 1 5 2 3 3-1v-2l-2-1 1-2 6-2 3 3 4-2 1 3h2v2l3 1 4 4h2l3 3 14 12 5 6 4 1 8 8 5 3 4 2 5 6h2l8 8h2l3 5-3 5-1 6-2-4-3-4-5-5-4-1-2-5-4-1v-2l-5-2-7-8h-2l-2-2-3-1-4-6h-2v-3l-7-2-2-3-3-4-1 2-4-6h-2l-4-4h-2l-2-2-4 2-2 6-1 13v8l-1 1v12l-1 1v11h-2l1 8-1 1v13l-1 1v5l-1 3v6l-2 7-2 4-4 7h-5l-2 1-3-3v-2l-4-1v-3l-3 1v-3l-2-1-2-5-3-1-3-4-6-7-2-4-2-1-6-7-3-5 4-2 2-4 9-9 7-8 7-10 8-16 7-22z" fill="#EBE7E0"/>
<path transform="translate(471,430)" d="m0 0h122v39l3 17 2 9-2 2-2-3-2 1-3-3h-5l-4-3-7-2-5-3-5-1-4-2v-2l-5-1-5-3-4-2v-2l-4 1-5-3-8-4-5-3-6-3h-2l-2-2-5-3-2-1v-2l-3 1-4-3-6-3-4-3-5-2-2-2-5-3-3-1v-2h-2z" fill="#FBEAA9"/>
<path transform="translate(963,297)" d="m0 0 6 1 8 6 9 14 8 13 8 7 7 3 23 1v1h-6l2 5v21l-5 17-12 42-8 16-11 14-8 11h-1l1-13 3-24v-26l-1-10v-13l10 1-3-5-6-9-4-11-1-9 8 6h3l-9-10-8-13-8-15-8-10-6-7z" fill="#090D0D"/>
<path transform="translate(1184,1439)" d="m0 0h147v1l-25 1v35h-115v-30l-4-5z" fill="#5E5F64"/>
<path transform="translate(718,573)" d="m0 0h8l15 4 18 6 14 4 20 3 11 1h65l6 3 4 4v8l-4 13-6 10-9 9-14 7-10 3-4 1-16 1-2 2-4 1h-24l-15-4-6-4-1-3-12-1-12-5-11-8-10-9-8-11-3-8v-13l3-8 5-5zm0 6-3 2 1 5 5 2 8 16 7 9 8 7 15 8 17 5h5l-4 5-8 4v1l29 4h11l-6-10 17-1 15-3 16-8 8-7 10-11v-2l6-1 1-5-6-4-6 1-5 2-8 1h-48l-29-4-16-4-29-9-4-3z" fill="#F7C695"/>
<path transform="translate(340,367)" d="m0 0h70l18 13 16 11 34 24 11 8v1l-69 1h-31v-1l29-1-19-13-17-12-40-28-2-1z" fill="#27292B"/>
<path transform="translate(259,1439)" d="m0 0h123l4 1v36h-110v-12l1-1 1-23h-19z" fill="#5E6064"/>
<path transform="translate(301,1129)" d="m0 0h178l-1 11-1 9-1 2h-179v-12z" fill="#878989"/>
<path transform="translate(1111,1129)" d="m0 0h178l4 10v12h-179l-3-16z" fill="#878989"/>
<path transform="translate(32,1415)" d="m0 0h1l3 10 6 8 7 4 7 2 8 1 74 1v8l1 4-1 7v16h-83l-12-6-7-8-2-6-1-8-1-21z" fill="#434749"/>
<path transform="translate(1039,357)" d="m0 0h350l8 3 6 5v2h-364z" fill="#515256"/>
<path transform="translate(386,574)" d="m0 0 6 1v2h6l5 3 5 4 3 6 1 8 1 5 1 7 2 10 1 8 1 9 1 5v6l1 2-1 3 2 1-1 4-2 4-7 7-4-1-2 2-5-1-5 1-1 2-2-1-2 2-2-4-2-1-1-4-4-3-1-3 1-5-1-9-2-8v-3-5l-1-5-3-12-1-6 1-4-2-1v-6l-3-7v-5l3-2h3l1-2 5-2z" fill="#C2C49F"/>
<path transform="translate(345,1424)" d="m0 0h26l147 4 292 1v2h-2l1 3-4 3-129 1-179 1h-59v-1l52-1-2-4-5-1h-6l-1-1-126-1-2-1v-2l-4-1z" fill="#BBBCBC"/>
<path transform="translate(1235,1215)" d="m0 0h126l12 24v2h-129l-5-12-4-11z" fill="#727374"/>
<path transform="translate(227,1215)" d="m0 0h126l-1 6-7 19-1 1h-128l3-10z" fill="#727374"/>
<path transform="translate(199,1420)" d="m0 0 65 1 47 2 34 1v2l6 2 7 1 118 1 5 1h6l4 4-1 3-52 1-179 1h-59v-1l37-1-1-2h9l2 1 6-2-2-3-27-1-8-3-5-2-1-3-11-2z" fill="#C9CFCF"/>
<path transform="translate(282,931)" d="m0 0h29l17 3 25 6 11 4 6 4v5l-5 3-15 2-14 1h-32l-15-1-18-4-6-3-4 2-3 7-3 3-7 3-27 4-1-24 1-8 6 1 9 4 20 5 2-3h2l1-6 4-4 12-3z" fill="#8BB5C0"/>
<path transform="translate(922,1073)" d="m0 0h445l2 1v7h-451l2-7z" fill="#8BB4C1"/>
<path transform="translate(535,1276)" d="m0 0h469l3 17 2 14h-3l-5-23v-2l-308 1h-154l-1 7-4 17h-5l1-10z" fill="#8A9291"/>
<path transform="translate(927,981)" d="m0 0h185l6 3 5 2-1 9 2 16-4-2-1-5-4-1-5-5-7-1-177-1v-14z" fill="#D9DBD6"/>
<path transform="translate(1021,430)" d="m0 0h99l-1 4-10 4-4 2v2l-8 5h-2v2l-9 5-7 5-11 6-10 6-24 12-4 1-1-1-2-18-4-10-5-5-4-3 2-6z" fill="#FCF4D8"/>
<path transform="translate(227,1148)" d="m0 0h64l1 8-6 1-41 2-15 2-13 4-14 7-8 7-6 9-10 18-12 21-6 11-1-4-3-1v-2l-2-1-2-7h-2l-1-5-3-4-2 1 2-5 16-29 7-9 9-8 14-8 15-5z" fill="#B8B9B9"/>
<path transform="translate(220,765)" d="m0 0 20 1 23 3 20 4 24 7 13 5 11 6 12 9 9 9 8 13 3 9 1 6 1 20 3 5 10 3 28 3 24 3 23 3 14 4 8 5 1 2-3 7-4-1v-2l-12-4-10-2-18-2h-8l-6-2-5 1-15-3h-3l-10-1h-6l-7-1-6-2v-2l-5-1-3-6-1-9v-18l-2-8-8-16h-2l-4-4v-2h-2v-2l-5-2v-2l-5-2-14-7-12-3-6-2-7-2-10-2-9-2-7-1-7-2h-7l-6-1h-5l-5-1h-8l-3-1z" fill="#C2C59F"/>
<path transform="translate(324,558)" d="m0 0 2 1-3 2zm-2 3 1 3-1 3 2 1h-2l2 7v4l2 1 3 9-1 9h-2l1 7 1 3-1 3 2 1 3 7 2 4v7l-1 6 1 13 4 2 2 4-1 2h6 3l3-3-1-12-1-13-2-16v-21l3-1 3 3-1 11 2 1h-2l2 5 1 10v5l1 5 1 10-1 4 2 1v8h-2l1 8-3 8h-2l-2 3-4-1-5 1h-2l-1-2-4-2-2-2h-2l-1-7-2-2v-6l-1-5-2-6v-5l-5-5-2 1-1 2-4-2-3-2 2-1 2-9 7-8v-8l-9-9-4-5-6-5v-2l-7-2-5-1h-11l-5 2-4 2-3 2-9 8-1 2h-2l-1 5-2 5h-2v3l2 1 2 5 4 7v3l-1 5-4 2h-2v-4l-5-3-5-11-1-9 2-7h2l1-4h2l2-4 3-4h2l2-4 8-8 5-1 5-2 9-2 6-1h3l1 2 7 1 9 5 6 1 3-6 2-7h2z" fill="#BABBBA"/>
<path transform="translate(1273,1245)" d="m0 0h102l4 8 8 17v2h-104l-9-22z" fill="#747575"/>
<path transform="translate(596,933)" d="m0 0 2 1 3 15 4 35 3 36v31l-1 30h-25v-13l3-18 1-16v-37l-2-36z" fill="#C1DBD5"/>
<path transform="translate(1368 1e3)" d="m0 0h1v25l-6 2h-24l-75 1h-90l-13-1h-12-3l-9-4v-2l-2-1-2-5 5 1 1-5 2 4 2-2h3l1-2 3 2 4 1 9 1h6 3l3 1h3l5-1h3 5 3l3 1h3l3-1h3l3 1h3l5-1h3l3 1 4-1h3 6 3l3 1h3l3-1h3l5 1h3l3-1h3l3 1 4-1h3l5 1h3l4-1h3 55 3l3 1 12-3 4-7z" fill="#B9BABA"/>
<path transform="translate(868,1429)" d="m0 0h225l66 1 1 4h2l1-3 2 1 1 5h-2v2h-71l-179-1-55-1 1-2 4-1 1-2z" fill="#B9BABA"/>
<path transform="translate(1276,544)" d="m0 0 6 3 11 6 6 4 5 5 2 4 3 3 3 6 3 8 1 9 1 7-1 8-1 7-4 10-2 4-4 2-6-7-3-1h-7l-31 7-3-1 27-18 12-9 4-4 1-2v-8l-4-6-3-2h-10l-28 16-13 8-2-1 10-13 20-28 5-10z" fill="#EEEDEC"/>
<path transform="translate(555,498)" d="m0 0 1 2h2l1-2 6 2-2 4h-3l-5-1-2 1-3-1v4l4-2v4l3 1v3 2l2 1v3l1 6v4 10l1 3v4 11 3l-1 3 2 1v6 3 6l-1 2 2 1v6l1 2-2 1 3 7-1 5 1 2 1 5 3-3h7l4-6 1-2 3-2 2-4 5-5 2-3-1-3 6-2v-2l8-7 1-3 2-4 3-3 5-4 4-8 4-2 2-4 2-3 8 1 1 11-3-3-12 14-10 13-11 13-7 9-14 17-7 8-9 3-3-1v-2h-2l-2-5-3-13-1-19-1-18v-13l-1-5v-3l-1-17-1-5-1-6-2-3-4-1-6 3h-2v2l-9 7-4 3h-2l-2 4-6 5h-3l-2 4-4 3h-2l-2 4-5 4h-2l-1 2-7 6h-2l-2 4-10 8h-3v2l-7 4h-6l-1-5h-4l1-2 3 1 1-2h7l2-2 4-1 5-4 5-3 2-4 4-1 4-4 2-1v-3l4-2 2-2 4-1 1-2 6-5 5-5 4-2v-3l6-2 3-4 6-4 2-3h2v-2l4-1v-2h2l2-4 10-6z" fill="#F5DB9F"/>
<path transform="translate(199,1276)" d="m0 0h82l-2 6-10 25h-84l2-6 7-15z" fill="#7A7D7C"/>
<path transform="translate(1377,427)" d="m0 0h6v291l-1 167h-1l-1-69-4-2v-264z" fill="#6F7071"/>
<path transform="translate(619,409)" d="m0 0h6l3 6 1 13-5-5-5-4h-3l2 4 3 2v2h2v3h2v3h2l1 4-4 5-4 10-2 7v9l1 3 1-12 5-13 4-4h2l2 14 1 2v49l-5-1-5-5-4-5 7 11 2 2 6 1 1 11v9l-6-1-5-5-6-10-9-16-6-18-2-19v-23l3-14 4-8 6-6z" fill="#F8C795"/>
<path transform="translate(285,1276)" d="m0 0h80l-1 6-9 25h-82l3-10 8-20z" fill="#747575"/>
<path transform="translate(1007,455)" d="m0 0 5 2 4 5 2 7v20l-3 14-5 16-6 14-7 10-9 10-13 14-5 2h-6l5-17 1-2 9-2 9-9-5 4-4 3-7 1 2-10 6-26 3-18 6-8 2-1 4 9v19l-1 4 2-3 2-9v-9l-2-8-1-6-2-1 5-6 5-4 7-2-1-3-5 1-9 6 2-5z" fill="#D5A377"/>
<path transform="translate(369,1276)" d="m0 0h79l-2 11-5 20h-81l1-7 4-11z" fill="#747575"/>
<path transform="translate(452,1276)" d="m0 0h79l-1 7-5 22-1 2h-79l2-11z" fill="#737475"/>
<path transform="translate(256,625)" d="m0 0 11 6 7 2h3l5 1 4-1v2l3-1 2 1 1-2v2h5l9-4 4-2 1-2 2 5 1 1v8l-3 5-1 7 2 9 2 7-2 1-1 2h-3l-1 2-7 2h-3-23l-2 1-10-2-5-2-3-3v-3l-2-1 3-7 1-9-2-11-1-9v-2h3z" fill="#D8A678"/>
<path transform="translate(147,1213)" d="m0 0 4 5 2 4 2 5 2 4 3 3-1 7-14 25-11 19-13 23-7 13-3-4-2-7h-2l-2-3-1-4-1-2h-7l8-16 14-24 15-27 11-19z" fill="#C7C6C4"/>
<path transform="translate(183,725)" d="m0 0 6 1v402h-2l-4-11z" fill="#595A5F"/>
<path transform="translate(730,590)" d="m0 0 5 1 19 6 26 6 24 3h48l8-1-2 4-2 3h-2l-2 4-9 6-10 4-6 2-7 1h-27l-25-5-12-5-11-7-6-5-6-8z" fill="#F8F8F8"/>
<path transform="translate(1020,1381)" d="m0 0h1l1 9-1-2h-224v25h229v1h-462v-1h229v-25h-224v-4h451z" fill="#919797"/>
<path transform="translate(1314,1276)" d="m0 0h75l6 12 8 18v1h-77l-12-28z" fill="#797D7C"/>
<path transform="translate(1466,1283)" d="m0 0 4 5 3 6-2 4-9 13-7 9-10 13-9 11-13 15-3 4h-2l-2 4-7 8h-2l-2 4-27 27h-2v2l-8 7-10 9-6 6h-19l1-3 8-6 12-11 10-9 17-16 10-10 1-2h2l2-4 3-1 2-4 7-8h2l2-4 3-4h2l3-6h2l3-6h2l2-5 3-1 2-4 6-8 10-13 13-18z" fill="#B4B5AF"/>
<path transform="translate(1237,1276)" d="m0 0h73l12 29v2h-75l-10-29z" fill="#747575"/>
<path transform="translate(425,651)" d="m0 0 3 1 1 2 7 2 8 6 2 4v10l-3 5-6 5-14 4-24 6-9 2-14 1h-156v-10l7-1 5 1h5l4-1 5 1h7l4-1 5 1h63l4-1h3l5 1 4-1h3l3 1 4-1 4 1h3l5-1h3l9 1 4-1h3 15l3-1 7-1 12-2 9-1 7-4 3-1 1-10-2-5-5-2h-3l-2 4v3l-4 2h-3l-6-1-1 2-1-5 3-3 3-1 1-4 2-5z" fill="#F4DB9F"/>
<path transform="translate(356,868)" d="m0 0h2v2l9 2 2 2 13 1 10 1h3l5 1 11 2 5-1 5 1 9 1-1 3-6 1-2 4-5 4-5 9-8 9-7 3-7 1h-9l-11-2-12-6-8-9-1-3v-8l3-5 2-8 2-2z" fill="#8CB6BF"/>
<path transform="translate(1083,1276)" d="m0 0h73l7 25 1 6h-74l-5-19-2-8z" fill="#737475"/>
<path transform="translate(1160,1276)" d="m0 0h72l3 7 7 20v4h-73l-3-8-6-20z" fill="#747575"/>
<path transform="translate(1007,1276)" d="m0 0h72l6 25v6h-72l-3-13-3-15z" fill="#737475"/>
<path transform="translate(923,217)" d="m0 0h2l6 10 2 6v14l-4 13-7 9 5-1 13-7 7-9h1v10l-4 13-6 10-5 4 16-4 10-3 16-8 6-2-3 10-4 1-9 8-12 6-9 2h-26l-10-1-1-2 14-7 8-6-2-1-16 8-17 5-7 1h-9v-2l8-4 6-7 3-8 4-1 11-8 8-9 6-12 2-10v-10z" fill="#090D0D"/>
<path transform="translate(636,1245)" d="m0 0h79l-1 20-1 7h-80l1-16z" fill="#737474"/>
<path transform="translate(874,1245)" d="m0 0h78l3 13 1 14h-80l-2-21z" fill="#737575"/>
<path transform="translate(474,1245)" d="m0 0h77l-1 11-4 16h-79l1-8 5-18z" fill="#737475"/>
<path transform="translate(576,1324)" d="m0 0h437l1 3-3 1h-432l-1 11-3 16-9 50-3 12h-3l1-15 4-20 10-56z" fill="#5D5E63"/>
<path transform="translate(957,1245)" d="m0 0h76l3 9 3 12v6h-79l-3-22z" fill="#747575"/>
<path transform="translate(1119,1245)" d="m0 0h77l6 17 2 10h-79l-6-24z" fill="#737475"/>
<path transform="translate(392,1245)" d="m0 0h77l-1 7-5 20h-79l2-10z" fill="#747575"/>
<path transform="translate(1383,1312)" d="m0 0h18l-2 4h-2v2h-2l-1 4-11 12-7 8-12 13-25 25-5 4h-2l-2 4-10 9-4 3h-2l-1 3-10 8-11 9-8 6-5 4h-17v-3l13-10h2v-2l14-11 9-7 3-1v-2h2v-2l4-1v-2h2v-2l8-7 6-5h2v-2h2v-2h2v-2h2v-2h2v-2h2v-2l8-7 7-7 1-2h2v-2h2v-2h2v-2h2l1-3 5-6h2v-2h2v-2h2l1-4h2v-2h2v-2h2l1-4h2z" fill="#A9A8A4"/>
<path transform="translate(556,1245)" d="m0 0h76l-1 12-2 14-1 1h-78l5-25z" fill="#737474"/>
<path transform="translate(1038,1245)" d="m0 0h77l5 20 1 7h-77l-4-16z" fill="#747575"/>
<path transform="translate(1296,945)" d="m0 0 5 1h3l7-1h18l4 2h3l4 3 2 4v6l-1 4h-2l1 7-3 4 2 1h-2l-2 8-6 5-6 1-2-1-6 1-1-1-2 2-5-1h-6l-2-1v-2l-3 1-4-4-2-6v-7l-2-7-1-9v-6l-2-1 7-1z" fill="#84AD9D"/>
<path transform="translate(517,1215)" d="m0 0h77l-1 11-3 15h-79l2-13 3-12z" fill="#727374"/>
<path transform="translate(128,1294)" d="m0 0 5 5 14 19 1 3h2l6 8v2h2l7 9 12 14 3 3v2h2l7 8 2 4 4 2 4 4v2l4 2 4 4v2l4 2 16 16 8 7 6 5 1 4h-15l-3-1-4-4v-2l-4-2-8-8-8-7-17-17-7-8-13-14v-2h-2l-9-11-11-13-9-12-8-10v-2h-2l1-5z" fill="#B4B5AF"/>
<path transform="translate(796,1245)" d="m0 0h74l2 21v6h-76z" fill="#737474"/>
<path transform="translate(837,1215)" d="m0 0h76l2 20v6h-78z" fill="#727374"/>
<path transform="translate(719,1245)" d="m0 0h73v27h-75z" fill="#747575"/>
<path transform="translate(598,1215)" d="m0 0h76l-1 15-2 11h-77l1-8z" fill="#737474"/>
<path transform="translate(917,1215)" d="m0 0h75l1 1 3 19 1 6h-78l-2-16z" fill="#727373"/>
<path transform="translate(186,1312)" d="m0 0h18v4h2l1 4h2v2h2v2h2l3 4v2h2v2h2v2h2l3 4v2h2v2h2v2h2v2h2v2h2v2h2v2h2v2h2v2h2v2h2v2h2v2h2v2h2v2h2v2h2v2h2v2l4 2 5 4v2l4 2 3 2v2h2v2h2v2l4 1v2h2v2l3 1 16 13 7 5v2l4 1v2l3 1 3 2 20 1v1h-28l-13-2-16-13-13-11-6-5v-2l-4-2-7-6v-2l-4-2-12-11-17-17-7-8-13-14-8-10v-2h-2v-2l-2-1z" fill="#A9A8A4"/>
<path transform="translate(1075,1215)" d="m0 0h76l6 19 1 7h-77l-6-24z" fill="#727374"/>
<path transform="translate(358,1215)" d="m0 0h75l-2 9-5 17h-77l2-9 3-8z" fill="#727374"/>
<path transform="translate(1155,1215)" d="m0 0h75l5 12 4 11v3h-77l-5-18-2-5z" fill="#727374"/>
<path transform="translate(437,1215)" d="m0 0h75l-1 8-4 18h-77l2-10z" fill="#727374"/>
<path transform="translate(996,1215)" d="m0 0h75l4 14 2 12h-76l-1-1-4-21z" fill="#727374"/>
<path transform="translate(678,1215)" d="m0 0h74v26h-77l1-11z" fill="#727373"/>
<path transform="translate(238,1191)" d="m0 0h97l-1 6-5 12-1 2h-98l1-6z" fill="#737474"/>
<path transform="translate(1253,1191)" d="m0 0h97l7 15 1 5h-98l-5-13-2-4z" fill="#747575"/>
<path transform="translate(670,318)" d="m0 0h1v11l-2 16-13 30-5 15-7 34-2 9h-2l-3-20-4-12-5-14-3-14-1-11 9-14 4 2 8 7 7-1 2-5 4-9 1-13-8-3 2-4 9-1z" fill="#090D0D"/>
<path transform="translate(756,1215)" d="m0 0h77v25h-77z" fill="#757676"/>
<path transform="translate(1201,1245)" d="m0 0h68l5 12 5 13v2h-70l-4-10-4-12z" fill="#747575"/>
<path transform="translate(448,984)" d="m0 0h1v15l-3 31-3 1-2 4-6 5-7 3-13 2-3 1h-12l-9 1h-6l-3 1h-4l-15 1-5 1-18 1-18 2-26 2-10 1-2 1h-7l-5 1h-6l-2 1h-7l-2 1-16 1-13 2-5 1v-12h24l9-2 17-1 21-2 49-4 43-3 29-2 16-3 7-4 3-6 5-30z" fill="#8BB4C0"/>
<path transform="translate(1111,1129)" d="m0 0h178l4 10v12h-5l-2-11-174-1z" fill="#B3B4AE"/>
<path transform="translate(301,1129)" d="m0 0h178l-1 10-172 1-4 5-1 6h-4v-12z" fill="#B3B4AE"/>
<path transform="translate(365,588)" d="m0 0 2 4v3l2 1 2 7-1 4 2 1 1 9 1 8 1 5 1 9 1 5 1 9 2 5 5 5 2 3-1 2 4 2v5l-2 1-4-2-4-1-1 2-2-2-6 1h-2l-7 2-6 2h-4l-3-1-1 2-5-1h-3-7v-3h-5l-2-4-1-4-2-4v-9l-3-5 1-3-2-6-3 2-3-3 1-5 4-4 4 2 3 5-1 2 2 1v5l1 5 2 8 1 1v5h2l4 6h5l1 2 5-2h4l2-2h3l1-4h2l2-9-1-5v-3-9l-1-5 1-6-2-1-1-13-1-5h2l-1-7 1-6 2-2 4-1z" fill="#F8D8BF"/>
<path transform="translate(1159,1430)" d="m0 0h65l141 1v2h2v2h10l1 3 13 1v1h-60l-167-1v-2h2l-1-5h-2l-1 2h-2z" fill="#C9CECF"/>
<path transform="translate(1171,934)" d="m0 0 7 1h2l3 7v5l-1 2 2 6 1 11 5 15 8 14-1 7-6 2-4-1-10 2-9-1-6-4-3-6v-9l2-11v-18l2-17h2l2-3h3z" fill="#BD846D"/>
<path transform="translate(1553,1407)" d="m0 0h2l2 4v15l-5 5-5 4-10 4-4 1h-142l-13-1-1-4-6 1-4-1v-2h-2v-2h161l11-2 8-5 4-5 3-7z" fill="#D4D5D4"/>
<path transform="translate(311,368)" d="m0 0h29l12 8 17 12 23 16 17 12 10 7v1h-31l-15-11-16-11-20-14-17-12-9-6z" fill="#595B5C"/>
<path transform="translate(1196,849)" d="m0 0h8l5 4 2 2 1 3 2 2v5l1 5v7l1 4v3l-1 3 1 2-2 4 2 1v4h-2l1 4-3 9-4 2-6 2h-7l-5-3v-3h-2l-1-2-2 1v-3l-2-1-1-10-1-9 3-9 10-23z" fill="#9B9A98"/>
<path transform="translate(1011,1328)" d="m0 0 4 1 12 65 3 17v6h-466v-3h462l-15-83z" fill="#B3B4AE"/>
<path transform="translate(710,414)" d="m0 0h21l13 3 13 5 10 7 6 7 6 12 3 10v5l-11 7-7 4h-12l-14-4-15-3-22-1-11-2-6-4-7-9-3-6v-5l7-9 10-9 12-6zm5 9-11 2-10 5-7 6-5 8 3 9 5 5 7 3 3 1 21 1 20 3 9 2h11l10-5 3-4-4-13-6-8-8-7-8-4-11-3-7-1z" fill="#060607"/>
<path transform="translate(1253,1440)" d="m0 0h52l1 1v35h-47v-9-3l-1-6h2l-1-7 1-5-3-1z" fill="#595B5C"/>
<path transform="translate(879,434)" d="m0 0h19l16 3 14 7 11 11 7 12 2 9-5 6-10 8-4 2h-10l-21-4-9-1-32-1-6-3-5-4-2-5-4-2-2-2 1-5 7-12 7-8 11-7 10-3zm-4 9-12 5-9 7-7 11 1 6 8 7 10 3 24 1 26 4h11l8-5 4-6-1-6-4-8-7-8-10-6-17-5z" fill="#060606"/>
<path transform="translate(660,628)" d="m0 0 5 5-1 4 2 1 2 7h2l1 3 3 6 4 1h4l4-2 12 12 11 9 8 6-2 2-9 2-6-1-23 5h-6l-3-4-4-2v-2h-3l-5-6-2-2-2-9 2-10 1-4 2-5h2l-1-4 2-7-1-2z" fill="#FAE6AF"/>
<path transform="translate(223,1072)" d="m0 0h5l5 1h32 3 38 3l3 1 4-1h3l2 1h7l4-1 11 1 4-1 5 1h3l5-1 2 1h5l4-1 11 1h3l5-1 2 1h5 3l3-1h40l3 3v5h-225v-8z" fill="#8BB4C1"/>
<path transform="translate(873,395)" d="m0 0h26l17 3 12 5 9 6 8 8 8 13 2 7-7-6-10-8-15-7-12-3-5-1h-23l-26 3h-13l-1-1 1-9 7-6 13-3z" fill="#1C1D1D"/>
<path transform="translate(1235,775)" d="m0 0 7 1 5 4 6 12 1 10 3 7 5 3h6l2 1 3-1 2 1 3-1 3 1 3-1 3 1 3-1 3 1 3-1 3 1 3-1 3 1 3-1 3 1 3-1 3 1 3-1 3 1 3-1 3 1 3-1 3 1 3-1 3 1 3-1 4 1 6 1 13 5v2l3 1v13l-4-2-5-5-9-3-11-1h-80l-9-1-7-3-3-3v-6l1 4 4-1 1-5v-5-4l-1-4-2-2 2-2-2-1-1-5-6-4-4-3z" fill="#FDCC9A"/>
<path transform="translate(714,376)" d="m0 0h25l21 5 17 6 9 5 4 5 1 9-2 2-9-1-16-6-14-5-17-4-5-1h-19l-16 4-18 9 6-8 10-10 10-6z" fill="#1B1C1C"/>
<path transform="translate(1121,989)" d="m0 0h3v3l4 4 2 7 9 12-1 4h-3l2 6 4 1 7 2h18l11 1h104l66-1h16l6-1v6l-3 1-14 1h-206l-6-2-4-1-2-2-2-1-1-4-5-8-3-5-1-9-1-12z" fill="#C9CFD0"/>
<path transform="translate(1368,445)" d="m0 0h3v11l-13 10-13 11-11 9-15 13-11 10-8 7-3 3-3 1-1 3 2 3 4 5 10 5 8 7 5 6v2h2l8 13 4 9 4 16v17l-2 10-5 13-8 13-6 8h-2l-2 4-11 8v-3l3-3 4-2v-2l3-1 4-6 6-6 2-5 5-9 2-9 2-6v-10l1-2-1-6v-3l-1-5-1-8-2-2-1-6-3-3-4-9-3-3-7-8-3-1-5-5-3-2v-2l-6-2-4-3v-2l-2-1-2-5-2-1-1-5h2l2-5 20-18 11-9 14-12 14-11 15-12z" fill="#FCEEC1"/>
<path transform="translate(1376,814)" d="m0 0 5 1v271l-7 1 1-208z" fill="#787C7C"/>
<path transform="translate(278,1440)" d="m0 0h49l-4 2-1 4-3 1 1 4v3 3l2 5-4 2 3 5 1 3-4 4h-42v-12l1-1z" fill="#5A5B5D"/>
<path transform="translate(225,760)" d="m0 0 9 1h7l5 1 11 1 6 1 9 2 9 1 9 3 8 2 11 3 12 5 10 5 6 4 2 2 3 1 3 3v2l4 2 4 4v2h2l9 14 4 13 1 9v10l1 6h2l2 2 13 2 5 1 14 1 8 1 2 1h5 3l9 1 5 1 9 1 5 1 9 2 9 3 8 5-2 5-11-6-17-4-29-3-21-3-20-2-10-3-3-3-1-3-1-20-3-12-6-12-11-12-12-9-15-8-18-6-20-5-17-3-14-2-23-2-4-1v-4z" fill="#F5DCA0"/>
<path transform="translate(796,1191)" d="m0 0h74l1 10v10h-75z" fill="#737474"/>
<path transform="translate(718,1191)" d="m0 0h74v20h-74z" fill="#747575"/>
<path transform="translate(636,1429)" d="m0 0h174v2h-2l1 3-4 3-129 1h-43l-8-4 3-3z" fill="#B9BABA"/>
<path transform="translate(949,1191)" d="m0 0h73l4 17v3h-74l-1-1-2-14z" fill="#737474"/>
<path transform="translate(567,1191)" d="m0 0h73l-1 11-1 8-1 1h-74z" fill="#747575"/>
<path transform="translate(490,1191)" d="m0 0h73l-3 18-1 2h-73l1-9z" fill="#747575"/>
<path transform="translate(333,566)" d="m0 0 4 1 5-1 4 2 3 1 2 4v7l-1 2h-2l-2 6-2 2-1 11 2 4-1 10 2 6-1 5 1 5 2 5v7l2 10-1 4-5 2-5-2v-3l-5-5-2-8v-9l1-3v-7l-4-5-1-5-2-5v-11l2-7-1-10-1-3v-4l2-2 1-3z" fill="#A4C3D0"/>
<path transform="translate(1177,1191)" d="m0 0h72l7 18v2h-73l-6-18z" fill="#747575"/>
<path transform="translate(1026,1191)" d="m0 0h72l4 15v5h-72l-4-17z" fill="#737474"/>
<path transform="translate(339,1191)" d="m0 0h72l-3 10-4 10h-72l3-9z" fill="#747475"/>
<path transform="translate(1025,516)" d="m0 0h1v19l-1 5v13l-1 1v22l-2 3 2 1-1 5v5l-4 9h-3-2l-3-4-6-9-5-5-3-5-2-1-3-6h-2l1-5 14-15 9-15 6-13z" fill="#F0EFED"/>
<path transform="translate(415,1191)" d="m0 0h71l-1 6-4 14h-72l2-9z" fill="#747575"/>
<path transform="translate(874,1191)" d="m0 0h71l1 2 1 9v9h-72z" fill="#737474"/>
<path transform="translate(1102,1191)" d="m0 0h71l6 18v2h-72l-5-16z" fill="#747575"/>
<path transform="translate(1267,938)" d="m0 0 4 1h3l3 1 3 3 5 2 5 1v2l-3 1 1 11 1 4 2 10 1 6 2 5-1 5-5 8h-7l-5-1-6-2-6-7v-3l-2-1 1-5v-5l-1-5-1-16v-7l2-5z" fill="#757675"/>
<path transform="translate(644,1191)" d="m0 0h70v17l-1 3h-72l2-17z" fill="#747575"/>
<path transform="translate(1222,765)" d="m0 0h13l3 3 8 6 5 5v2h2l3 7 3 16 3 2 19 1h64l17 4 8 5v6l-3-1v-2l-4-1-12-4h-7-4l-3-1-3 1-3-1-3 1-3-1-3 1-3-1-3 1-3-1-3 1-3-1-3 1-3-1-3 1-3-1-3 1-3-1-3 1-3-1-3 1-3-1-3 1-2-1-3 1-3-1-7-1-4-5-2-4-1-11-6-12-5-3-6-1 1 4 4 2 3 1 3 4-1 4 3 1-1 3 2 4-2 4 2 1v8l-4 4-4-2-2-8 1-6-2-6-4-3-4-2-1-4h-8v-3l-3 3-2-2 1-6z" fill="#F4DA9F"/>
<path transform="translate(1025,347)" d="m0 0 3 1v21l-5 17-3 10-6 8-3 2-4-1-6-10-4-16-6-12v-2l7 2h9l-2-4-7-11-1-4 4 1h14z" fill="#262A2A"/>
<path transform="translate(928,974)" d="m0 0h181v2l4-1 7 7h-3l-4-1-3 1-183-1v-6z" fill="#FBEAAA"/>
<path transform="translate(321,557)" d="m0 0 2 1-1 4-8 18-16-8-9-2h-9l-7 2-5 2-2 1-2-1-1 2-6 5-4 5-9 9-4 10v6l4 10 1 1v5l-4-1 5 15 1 7-3 7-5 3-10 2h-8l-1-1v-5l11-1 6-3 2-7-5-17-4-13 1-12 2-5h2l2-5 3-1 2-4 3-1 2-4 3-4h2l2-4 7-5 16-4 7-1h12l11 2h4l4-4 3-1z" fill="#F4DBA0"/>
<path transform="translate(619,424)" d="m0 0 2 1v2h2v3h2v3h2l1 4-4 5-4 10-2 7v9l1 3 1-12 5-13 4-4h2l2 14 1 2v49l-5-1-5-5-5-7h-1l-4-13-3-12-1-7v-17l3-13z" fill="#D4A277"/>
<path transform="translate(1007,455)" d="m0 0 5 2 4 5 2 7v20l-3 14-5 16-6 14-7 10-9 10-13 14-5 2h-6l5-17 1-2 9-2 9-9 9-15 6-12 4-13 1-6v-15l-3-8 5-2-1-3-5 1-9 6 2-5z" fill="#F7C696"/>
<path transform="translate(183,725)" d="m0 0 6 1v198l-4 1-2-1z" fill="#5A5C5D"/>
<path transform="translate(607,1020)" d="m0 0h1v31l-1 30h-25v-13l3-18 1-16 2-5h18z" fill="#97BBCC"/>
<path transform="translate(1556,1426)" d="m0 0h1v14l-1 14-3 9-6 7-9 5-5 1h-13l5-11v-14l-4-9-71-1v-1l83-1 10-3 8-5 3-1z" fill="#67676D"/>
<path transform="translate(877,600)" d="m0 0h2l-1 11-6 14-9 10-8 6-14 6-9 2h-15l-9-3-4-5-2-5 18-1 15-3 16-8 8-7 9-10 1-2 7-3z" fill="#F9C896"/>
<path transform="translate(1258,935)" d="m0 0 2 1 1 4 1-2 1 6-1 7v10l1 9 1 10 1 8 6 5 7 3h4l3 3 3 1-4 6-4-1-5 1-4-1h-12l-9-2-5-3-2 2-2-5 1-5 5-10 3-11 1-9v-14l-1-2v-7l4-2 1 1z" fill="#BB846D"/>
<path transform="translate(432,430)" d="m0 0h13l10 5 5 5 2 4 1 3-1 5 1 4h-2l1 7-2 6 3 1-1 2h-2l1 9-1 5-1 3 1 2-2 6 1 3-1 5-1 3v3l-3 6 2 1-3 3 3 1-1 5-1 3-2 8v6 3l-3 6 1 2v12l2 4v3l-3 1h4l-1 2h-3-3v-2l-2-1-2-6v-4-13l2-7v-9l1-2v-6l1-2 1-9 1-5v-6l2-7v-4l2-14 1-5-1-5h2v-6l1-5v-8l-2-2-2-4-4-4-4-2v-2h-3v-2l-6-2z" fill="#FCE7B1"/>
<path transform="translate(797,145)" d="m0 0v3l-10 14-10 11-17 12-10 7-5 8-2 9v16l-2-3-3-14v-9l3-9 8-9 11-7 4-2-12 3-12 5-9 9-9 14-2 2 1-7 4-10 6-10 4-5 9-6 11-4 19-5 16-7z" fill="#646767"/>
<path transform="translate(1113,1146)" d="m0 0h1v5h183l1 4-2 2h-186l-2-4 1-3 4 1z" fill="#484C4E"/>
<path transform="translate(481,1150)" d="m0 0 1 3-2 4h-186l-2-2 1-4h187z" fill="#484C4E"/>
<path transform="translate(258,627)" d="m0 0 10 4 6 2h3l5 1 4-1v2l3-1 2 1 1-2v2h5l9-4 4-2 1-2 1 5-5 3-1 5-5 5-1 10-4 8-5 3-5 1-5-1-2 1-3-3-1 2v-2l-6-2v-3l-2-1v-5l2-1h-3l-2-9 1-3-3-1-2-6-3-5z" fill="#C59070"/>
<path transform="translate(606,1172)" d="m0 0h73l-1 11-1 4h-73l1-10z" fill="#747575"/>
<path transform="translate(927,981)" d="m0 0h185l6 3 1 4h-2l-1 2-4-1-2-1v-2l-8 2-10-1h-165l-1-5z" fill="#EAE6DF"/>
<path transform="translate(758,1172)" d="m0 0h73v15h-73z" fill="#747676"/>
<path transform="translate(1245,523)" d="m0 0 1 2h2l1-2h2l2 2h8l5 5v5l-10 1-8 7-12 15-10 14-9 11-4 3 2-12 7-28 3-13 6-4 3 1 3-4v3h3l1-5 4 3z" fill="#EDECEA"/>
<path transform="translate(682,1172)" d="m0 0h72v8l-1 7h-72z" fill="#747676"/>
<path transform="translate(909,1172)" d="m0 0h71l2 11v4h-72z" fill="#737474"/>
<path transform="translate(1133,1172)" d="m0 0h71l4 11v4h-71l-4-12z" fill="#747575"/>
<path transform="translate(309,1172)" d="m0 0h71l-3 11-2 4h-71l3-11z" fill="#737474"/>
<path transform="translate(384,1172)" d="m0 0h71l-3 11-1 4h-71l1-7z" fill="#737474"/>
<path transform="translate(1208,1172)" d="m0 0h71l5 13v2h-71l-3-8z" fill="#747575"/>
<path transform="translate(984,1172)" d="m0 0h71l2 11v4h-71l-2-10z" fill="#747575"/>
<path transform="translate(459,1172)" d="m0 0h70l-1 8-2 7h-71l2-10z" fill="#737474"/>
<path transform="translate(1059,1172)" d="m0 0h70l4 13v2h-71l-2-7z" fill="#747575"/>
<path transform="translate(835,1172)" d="m0 0h70l1 15h-71z" fill="#747575"/>
<path transform="translate(691,263)" d="m0 0h3v3h17l11 4 4 3-15 5-27 6-5 1-1 2h10l10-1-5 10-11 9-22 14-2-1 11-12 7-11h-9l-11-4-11-7v-1l29-1 15-3 15-6-3-1-21-1 4-4z" fill="#090D0D"/>
<path transform="translate(119,1264)" d="m0 0 3 2 2-2 2 2 3 4v3l3 3 1 10-14 26-5 9-3-4-2-7h-2l-2-3-1-4-1-2h-7l8-16 12-20z" fill="#C8CECF"/>
<path transform="translate(213,1245)" d="m0 0h174v5l-169 1-5 12-4 9h-8l2-5 6-14z" fill="#8D9695"/>
<path transform="translate(533,1172)" d="m0 0h69l-2 15h-69l1-9z" fill="#747575"/>
<path transform="translate(856,169)" d="m0 0 3 3 3 7 1 10 5-4 3-2 4 1-5 5-5 8-4 13v16l4-5 5-6 6-3 2 1-5 4-5 10-5 18-3-4-8-16v-15l-7 10-4 8v16l3 12-5-5-4-10v-19l9-16 9-12 2-7z" fill="#646768"/>
<path transform="translate(471,430)" d="m0 0h14l3 3 1 2 3 1 1 3 8 1 4 4h3l3 3 4 1 3 3h2v2l8 2v2l6 1 1 2 10 4 1 2 6 1v2h5v2l9 2v2h5v2l7 2 5 1v2l12 2 3 11-2 2-2-3-2 1-3-3h-5l-4-3-7-2-5-3-5-1-4-2v-2l-5-1-5-3-4-2v-2l-4 1-5-3-8-4-5-3-6-3h-2l-2-2-5-3-2-1v-2l-3 1-4-3-6-3-4-3-5-2-2-2-5-3-3-1v-2h-2z" fill="#FBE7B1"/>
<path transform="translate(1120,430)" d="m0 0h27l-4 2-1 2-9 5-3 10 2 23 1 20 2 21 1 7-1 2-3-1 1-3-2-7-1-4v-3l-1-9 1-2-1-5v-3-7l-2-1 1-5-2-4v-3l-1-3 1-3-2-3-1-2-1-1v-6l-7-2-5 1-4 2-1-1-2 3-3 1-2 2-5 3-6 4-5 2-2 2-6 1-3 3-6 3-3 1-2 2-6 3-4 1-4 2-2 2-6 1-1 2-6-1 1-2 4-1 19-10 12-6 9-6 9-5 7-5h3v-2l8-5h2v-2l6-4 5-2h3z" fill="#F9F7F2"/>
<path transform="translate(1370,456)" d="m0 0 1 3-9 6-13 11-11 9-14 12-12 11-8 7-3 4-1 3h2l3 3 10 7v2l4 2 8 9 2 2 6 9 4 8 2 5 1 4 2 10 1 1v30h-2l-2 3-2 4-1 4-4 6-1 3h-2l-2 6-4 6h-2v2h-2v2h-2l2-4 7-10 7-14 3-9 1-14v-10l-4-16-8-16-3-4v-2h-2l-6-8h-2l-5-6-11-6-3-3-3-5 2-4 4-1 7-8 14-12 11-10 11-9 14-12 13-10z" fill="#FCE8B0"/>
<path transform="translate(476,443)" d="m0 0h3l3 1 2 2 4 1v2l3 1 1 1 4 1v3l3-1 6 3v2l6 1 5 5 3-1 1 3h3l6 3 4 4h4l3 3 3 1 3 3 3 1 3 8-4 3-6-2h-3l-3-3-5-3h-2l-2-2-4-2-6-2-4-2v-2l-6-2-4-1v-2l-6-2-5-5-1 2-1-2h-3l-4-3-1-3-3 1-7-1-4-3v-2l2-2v-5l5 1z" fill="#EDE5DB"/>
<path transform="translate(40,1401)" d="m0 0h1l1 13 3 8 7 6 6 2 16 1h16l31 1h6l3 5-2 3h-72l-11-4-7-6-5-10v-9l5-9z" fill="#D8DAD5"/>
<path transform="translate(324,558)" d="m0 0 2 1-3 2zm-2 3 1 3-1 3 2 1h-2l2 7v6l2 5-1 7-3 2-3-1-1-3h-5l-1-4-4-2-7-5-2-1v-2h-5l-7-2-9 1-12 4-4 4h-2v2h-2l-1 4h-2v2h-2v2l-2 1-2 5h-2l-1 9 2 8 2 1 1 3h2l3 3v6l-4 2h-2v-4l-5-3-5-11-1-9 2-7h2l1-4h2l2-4 3-4h2l2-4 8-8 5-1 5-2 9-2 6-1h3l1 2 7 1 9 5 6 1 3-6 2-7h2z" fill="#C2C49F"/>
<path transform="translate(1368 1e3)" d="m0 0h1v15l-6 4-9 1h-15l-3 1-6-1h-15-3-5l-4 1-14-1h-129-3-7l-5-3 1-2 10-1 4 1h9 3l3 1h3l5-1h3 5 3l3 1h3l3-1h3l3 1h3l5-1h3l3 1 4-1h3 6 3l3 1h3l3-1h3l5 1h3l3-1h3l3 1 4-1h3l5 1h3l4-1h3 55 3l3 1 12-3 4-7z" fill="#ACA9A3"/>
<path transform="translate(576,1324)" d="m0 0h109l101 1-2 2-204 1-3 14-5 30-7 39-2 6h-3l1-15 4-20 10-56z" fill="#5A5C5E"/>
<path transform="translate(1384,1153)" d="m0 0 7 1 12 5 13 9 7 7 10 17 10 18-5 8-4 3-3-1-17-32-9-16-9-10-9-6z" fill="#B7B8B8"/>
<path transform="translate(715,423)" d="m0 0h15l5 1v1l-12 2-6 4-4 5-3 6v11l3 8h-16l-7-3-5-5-3-9 7-10 10-7 8-3z" fill="#FAFAFA"/>
<path transform="translate(227,1215)" d="m0 0h126l-1 6-121 1-7 17-1 1h-7l5-13z" fill="#899090"/>
<path transform="translate(1235,1215)" d="m0 0h126l8 16 3 9h-7l-6-12-2-6-119-1-3-3z" fill="#899090"/>
<path transform="translate(1283,1172)" d="m0 0h58l6 12v3h-59l-5-13z" fill="#737474"/>
<path transform="translate(247,1172)" d="m0 0h58l-1 4-4 11h-59l1-6z" fill="#737474"/>
<path transform="translate(1439,1234)" d="m0 0 4 5 4 8-2 6-15 22-13 18-9 12h-2l-5-11 1-4 3-3h2l2-5 3-5h2l1-4h2l2-5 3-5h2l2-6h2l2-6 3-5h2l1-7z" fill="#A9A8A4"/>
<path transform="translate(1065,1430)" d="m0 0h94l1 4h2l1-3 2 1 1 5h-2v2h-71l-27-1-3-3 2-2-2-2z" fill="#B9BABA"/>
<path transform="translate(1441,1211)" d="m0 0h3l12 22 14 24 2 5h-2l-2-2-2 2-2 4 1 4-2 6-4-5-17-32-9-16 2-4 3-1 2-6z" fill="#C6C5C3"/>
<path transform="translate(222,772)" d="m0 0 17 1 2-1v2h8l14 2 15 3 4 1 13 3 19 6 12 6 11 8 3 2v2h2v2h2l9 13 4 11 1 13v13l1 6 2 1 6 4 9 2 22 2 7 1h4l16 2 14 1 14 2 12 4 7 4 1 4-4-1v-2l-12-4-10-2-18-2h-8l-6-2-5 1-15-3h-3l-10-1h-6l-7-1-6-2v-2l-5-1-3-6-1-9v-18l-2-8-8-16h-2l-4-4v-2h-2v-2l-5-2v-2l-5-2-14-7-12-3-6-2-7-2-10-2-9-2-7-1-7-2h-7l-6-1h-5l-5-1h-8l-3-1v-2z" fill="#B4B5AF"/>
<path transform="translate(861,142)" d="m0 0h13l9 3-2 2-12 6h19l18 4 1 2h-28l-16 2-11 2 2-6 6-7-7 1-15 4-16 8-13 11-6 8-1-2 7-12 7-8 11-8 12-6 13-3z" fill="#646667"/>
<path transform="translate(391,1430)" d="m0 0h85l5 1h6l4 4-1 3-52 1h-46l-1-5z" fill="#C8C7C5"/>
<path transform="translate(345,1424)" d="m0 0h26l147 4v1l-17 1 2 4 1 4-7 1h-59v-1l52-1-2-4-5-1h-6l-1-1-126-1-2-1v-2l-4-1z" fill="#B9B9B9"/>
<path transform="translate(740,606)" d="m0 0 9 3 24 6 16 3 9 1h48l-3 3-10 4-6 2-7 1h-27l-25-5-12-5-11-7z" fill="#F8F8F8"/>
<path transform="translate(360,578)" d="m0 0 5 4 2 4 2-3 2 7 2 6 1 7-1 2 3 1v3l1 3-2 1 3 10 1 9 1 5 1 11 1 5v5l-4-1v-3l-2-2-1-6h2l-1-6-2-2-1-8 1-4-1-5v-4l-2-1-1-9v-5l-2-2-1-5-2-4-4 4h-2v4l-2 14 2 1-1 9 2 1v6l1 5-1 6 2 1v8 4l-1 6-2 4h-2l-1 6h-1v-7l1-5v-16l-1-5v-10l-2-6v-5-3l-1-8v-11l-3-5 4-8 5-2z" fill="#CAC8C4"/>
<path transform="translate(898,444)" d="m0 0h7l16 6 9 7 7 10 2 5-1 6-5 6-6 3h-11l-9-2 6-9 2-5v-9l-5-10-9-6z" fill="#F9F9F9"/>
<path transform="translate(1146,1013)" d="m0 0 4 2-2 3-2 1 5 2h6 3 136l7 1 4-1h27l3 1 7-1h16l5-2 4-2v5l-6 2-10 1h-14l-2 1h-12l-2-1-8 1h-6l-2-1-6 1-2-1-8 1-2-1-4 1-6-1-10 1-5-1h-9l-10 1-8-1-4 1h-3l-5-1-4 1-2-1-9 1-5-1h-3-11-3l-8 1-3-1-10 1h-8l-15-3-2-8h4z" fill="#B4B4AF"/>
<path transform="translate(1273,1245)" d="m0 0h102l4 8 8 17v2h-7l-8-16-1-6-20 1h-76z" fill="#8C9594"/>
<path transform="translate(283,574)" d="m0 0h5l7 2 4 1 2 2 3 1 5 5 5 4 1 2h3v2h3l3-1 1-8-2-5 3 1 3 9-1 9h-2l1 7 1 3-2 6h-2l2 2h-2l-2 6-4 2-5 3-2 2 2-9 7-8v-8l-9-9-4-5-6-5v-2l-7-2-5-1h-11l-5 2-4 2-3 2-9 8-1 2h-2l-1 5-2 5h-2v3l2 1 2 5 4 7v3l-4-2v-2h-2v-2l-2-1-3-5-1-9 3-6h2l1-4h2v-2h2l1-4h2v-2h2v-2h2l2-4 5-2 7-2z" fill="#A9A9A2"/>
<path transform="translate(1553,1407)" d="m0 0h2l2 4v15l-5 5-5 4-10 4-4 1h-55l-1-4h2l1-2 5-2h5l4 1 3-1 29-1 11-2 8-5 4-5 3-7z" fill="#D9DBD6"/>
<path transform="translate(875,443)" d="m0 0h22v1l-13 2-8 6-4 7-1 4v9l4 9h-14l-8-4-6-7 1-6 7-10 8-6z" fill="#FAFAF9"/>
<path transform="translate(32,1415)" d="m0 0h1l3 10 6 8 7 4 4 1 1 27 3 10-7-1-9-6-6-8-2-12-1-21z" fill="#7B7A7B"/>
<path transform="translate(155,1246)" d="m0 0 4 4 3 8 2 6h2l2 6h2l1 4h2l6 9 4 5 4 3-1 5-5 10-6-5-2-4-13-18-12-18 2-6z" fill="#A9A8A4"/>
<path transform="translate(1390,570)" d="m0 0 7 1 4-1 2 3 5 1v10l-2 4h-2l-7 14h-2v2h-2v2h-2v2h-2v2h-2v2h-2l-1 2-1-1v-40l4-2h2z" fill="#2B2C2F"/>
<path transform="translate(283,929)" d="m0 0h28l32 6 17 5 13 5 5 4 1 4-8 5-32 3h-34l-24-2h-13l-11 7-12 3-17 2h-7l1-2 30-5 5-2 2-5 2-6 4-1 6 3 18 4 19 1h28l23-2 9-2 2-6-5-2-9-4-23-6-16-3-8-1h-26z" fill="#84AF9F"/>
<path transform="translate(238,1191)" d="m0 0h97l-1 6-91 1-4 8-2 5h-7l1-6z" fill="#89908F"/>
<path transform="translate(810,1429)" d="m0 0h58l-2 4-5 1-1 2-1 1h55v1h-238v-1l129-1 3-3v-2h2z" fill="#9B9D9D"/>
<path transform="translate(1253,1191)" d="m0 0h97l7 15 1 5h-6l-5-9-1-4-92-1z" fill="#89908F"/>
<path transform="translate(199,1276)" d="m0 0h82l-2 6h-76l-3 9-7 16h-8l2-6 7-15z" fill="#8B9393"/>
<path transform="translate(285,1276)" d="m0 0h80l-1 6-75 1-4 9-5 15h-7l3-10 8-20z" fill="#899090"/>
<path transform="translate(1468,1259)" d="m0 0 2 1v2l4 2 15 27 2 5-3 1-3 6h-2l1 3-3 4-18-33v-6l1-3-1-4 3-4z" fill="#C8CDCE"/>
<path transform="translate(294,790)" d="m0 0 5 1 1 3-7 4-8 14-7 18-10 34-6 15-8 17-14 21-6 6h-2v2l-9 6-2-1 1-5 7-4 9-9 10-15 11-22 9-27 4-14 7-20 10-19 1-3z" fill="#8AB3C0"/>
<path transform="translate(1314,1276)" d="m0 0h75l6 12 8 18v1h-7l-8-16-3-9h-69l-2-3z" fill="#8C9493"/>
<path transform="translate(596,933)" d="m0 0 2 1 3 15 3 27v5h-18l-1-3-1-17z" fill="#F1D99E"/>
<path transform="translate(1159,1430)" d="m0 0h65l8 1 1 3-2 3 3-1h2l2-2 1 5h-75v-2h2l-1-5h-2l-1 2h-2z" fill="#C8C7C5"/>
<path transform="translate(737,425)" d="m0 0 7 1 10 4 8 6 6 7 4 8 2 9-6 5-7 3h-11l-4-3 5-6 3-8v-7l-3-8-4-5-10-5z" fill="#F9F9F9"/>
<path transform="translate(341,605)" d="m0 0 4 1-1 9 2 6-1 5 1 5 2 5v7l2 10-1 4-5 2-5-2v-3l-5-5-2-8v-9l1-3v-7l-2-4 3-4h2l1-3h2z" fill="#A6C4D0"/>
<path transform="translate(1e3 272)" d="m0 0 5 5 5 8 3 9 4 20 4 9 2 4-7-2-7-7-13-26v13l-2 3-7-28v-3l6 2 7 7 5 9-2-12z" fill="#646768"/>
<path transform="translate(579,1328)" d="m0 0h67l-1 3-7 2-7 1-2 1-5-1-30 7-13 3h-4l-1 2 1-7z" fill="#7D7C7D"/>
<path transform="translate(1237,1276)" d="m0 0h73l12 29v2h-6l-6-13-4-9v-3h-67z" fill="#8A9392"/>
<path transform="translate(369,1276)" d="m0 0h79l-1 6h-75l-3 10-4 13-1 2h-4l1-7 4-11z" fill="#89908F"/>
<path transform="translate(1129,940)" d="m0 0 5 1v43h-3l-4-4-5-3-2 2-1-4-2-1v-8l1-3-2-1 2-7 2-13z" fill="#FCCA98"/>
<path transform="translate(847,186)" d="m0 0 3 1-6 10-13 13-11 9-9 10-4 8-1 3v12l4 15 8 17-3 1-8-13-5-11-3-10v-13l4-9 6-8 10-9 10-8 10-9z" fill="#010101"/>
<path transform="translate(245,1421)" d="m0 0h19l47 2 34 1v2l5 2v3h-49l-21-1-5-1h-3l-1-4h-13l-2-2-11-1z" fill="#C7C6C5"/>
<path transform="translate(1083,1276)" d="m0 0h73l7 25 1 6h-5l-5-15-2-10h-68z" fill="#8A9291"/>
<path transform="translate(452,1276)" d="m0 0h79l-1 6h-75l-1 6-4 16-1 3h-4l2-11z" fill="#898F8F"/>
<path transform="translate(1007,1276)" d="m0 0h72l6 25v6h-4l-3-8-4-17h-66z" fill="#899190"/>
<path transform="translate(607,1020)" d="m0 0h1v31l-1 4h-20l-2-1 1-20 2-5h18z" fill="#A2C1CD"/>
<path transform="translate(636,1245)" d="m0 0h79v6h-76l-1 14-1 7h-4l1-16z" fill="#8C9493"/>
<path transform="translate(1160,1276)" d="m0 0h72l3 7 7 20v4h-4l-6-17-2-5v-3h-69z" fill="#8A9291"/>
<path transform="translate(358,1215)" d="m0 0h75l-1 6-71 1-4 11-3 7h-4l1-8 3-8z" fill="#89908F"/>
<path transform="translate(927,978)" d="m0 0h181l4 3-2 1-183-1z" fill="#FCE3B6"/>
<path transform="translate(1155,1215)" d="m0 0h75l5 12 3 8v5h-4l-6-16v-3h-71l-2-3z" fill="#89908F"/>
<path transform="translate(1277,943)" d="m0 0 10 2 3 1v2l-3 1 1 11 1 4 2 10 1 6 2 5-1 5-2 2v-2h-2l-1 3-2-6h-2v-2l-3-1-3-10v-5l-2-5-1-4-1-6v-3l1-4z" fill="#7C847F"/>
<path transform="translate(1075,1215)" d="m0 0h76l6 19 1 6h-4l-5-16v-3h-73z" fill="#89908F"/>
<path transform="translate(517,1215)" d="m0 0h77v6h-76l-3 16-1 3h-3l3-15 2-9z" fill="#8A9291"/>
<path transform="translate(437,1215)" d="m0 0h75v5l-1 1h-72l-4 18-4 1 1-9z" fill="#89908F"/>
<path transform="translate(1197,859)" d="m0 0 5 2 3 9v14l-1 4 1 7-2 7h-2l-1 2-4-4-2-3-2-1-2-10-1-11v-4l3-1 2-8z" fill="#8C9A97"/>
<path transform="translate(339,1191)" d="m0 0h72l-2 6-66 1-4 9-1 4h-6l3-9z" fill="#89908F"/>
<path transform="translate(953,221)" d="m0 0h10l8 4 14 12 14 8 13 5v2l-2 1h-10l-11-4-6-3h-13l2-4 6-3-8-6-9-4h-9l-8 2 2-4 5-5z" fill="#646667"/>
<path transform="translate(835,180)" d="m0 0 1 2-7 11-10 9-12 9-9 8-6 9-3 9-2 12-2-4v-17l4-10 7-9 14-11 18-12z" fill="#646768"/>
<path transform="translate(996,1215)" d="m0 0h75l4 14 1 11h-2l-4-16v-3h-73z" fill="#89908F"/>
<path transform="translate(1177,1191)" d="m0 0h72l7 18v2h-5l-5-13-67-1z" fill="#89908F"/>
<path transform="translate(598,1215)" d="m0 0h76v6h-75v8l-2 11h-2l1-14z" fill="#8A9291"/>
<path transform="translate(1292,525)" d="m0 0 4 1 2 4 11 6 8 7 5 6v2h2l8 13 4 9 4 16v17l-2 10-5 13-8 13-6 8h-2l-2 4-11 8v-3l3-3 4-2v-2l3-1 4-6 6-6 2-5 5-9 2-9 2-6v-10l1-2-1-6v-3l-1-5-1-8-2-2-1-6-3-3-4-9-3-3-7-8-3-1-5-5-3-2v-2l-6-2-4-3v-2l-2-1z" fill="#FBDAC1"/>
<path transform="translate(1201,1245)" d="m0 0h68l5 12 5 13v2h-5l-4-8-4-10v-3h-33l-32-1z" fill="#8C9494"/>
<path transform="translate(718,1191)" d="m0 0h74v6h-70l-1 14h-3z" fill="#89908F"/>
<path transform="translate(415,1191)" d="m0 0h71l-1 6h-68l-3 13-5 1 2-9z" fill="#89908F"/>
<path transform="translate(678,1215)" d="m0 0h74v6h-72l-2 19h-2v-10z" fill="#89908F"/>
<path transform="translate(719,1245)" d="m0 0h73v6h-71v9l-1 10-1 2h-2z" fill="#8C9493"/>
<path transform="translate(1102,1191)" d="m0 0h71l6 18v2h-4l-4-11v-3h-68z" fill="#89908F"/>
<path transform="translate(957,1245)" d="m0 0h76l3 9 3 12v6h-4l-3-12-1-10h-74z" fill="#8D9695"/>
<path transform="translate(606,1172)" d="m0 0h73l-1 6h-68l-1 9h-5l1-10z" fill="#8A9291"/>
<path transform="translate(1038,1245)" d="m0 0h77l5 20 1 7h-3l-4-16-1-6-39 1h-35z" fill="#8C9493"/>
<path transform="translate(733,597)" d="m0 0 13 7 13 4 25 5 19 2h35l11-2h5l-4 5-4 2h-48l-20-3-26-6-10-4h-3l-6-8z" fill="#969C9B"/>
<path transform="translate(392,1245)" d="m0 0h77l-1 5h-73l-3 10-3 11-5 1 2-10z" fill="#8D9595"/>
<path transform="translate(309,1172)" d="m0 0h71l-2 6h-65l-3 9h-6l3-11z" fill="#8A9291"/>
<path transform="translate(490,1191)" d="m0 0h73l-1 6-70 1-3 13h-3l1-9z" fill="#89908F"/>
<path transform="translate(766,531)" d="m0 0 1 2-4 9v7l2 3h14l6 3 4 5 4 6 2 1h7l8-7 7-3h7l2 1v2l6 1 3-3 2-4v-13l2 1 2 6v8l-3 7-2 2h-8l-6-3h-6l-8 6-5 4h-7l-4-1v-2l-3-1-7-9-2-2h-8l-7 1-4-2-2-3v-14l2-3h2l2-4z" fill="#403F42"/>
<path transform="translate(1119,1245)" d="m0 0h77l6 17 2 10h-4l-6-18v-4h-74z" fill="#8D9695"/>
<path transform="translate(326,611)" d="m0 0 3 1 3 7 2 4v7l-1 6v14l2 5-1 7-4 5-1-7-2-2v-6l-1-5-2-6v-5l-5-5-2 1-1 2-4-2-3-2h3l1-5 4-1 4-3 2-3 1-3-1-2 3-1z" fill="#C1C39F"/>
<path transform="translate(567,1191)" d="m0 0h73v5l-1 1h-71l-1 10-1 4-3-1z" fill="#8A9291"/>
<path transform="translate(1208,1172)" d="m0 0h71l5 13v2h-5l-4-8-65-1z" fill="#8A9291"/>
<path transform="translate(1026,1191)" d="m0 0h72l4 15v5l-3-1-2-8v-5h-70z" fill="#888F8F"/>
<path transform="translate(221,942)" d="m0 0 6 2 10 4 10 3 4 5-2 5-16 4-12 1-1-20z" fill="#8BB6BF"/>
<path transform="translate(474,1245)" d="m0 0h77l-1 5h-75l-1 8-3 13-4 1 1-8 5-18z" fill="#8C9594"/>
<path transform="translate(384,1172)" d="m0 0h71l-2 6h-66l-3 9h-4l1-7z" fill="#8A9291"/>
<path transform="translate(556,1245)" d="m0 0h76v5h-74l-1 11-2 10-5 1 5-25z" fill="#8D9695"/>
<path transform="translate(1133,1172)" d="m0 0h71l4 11v4h-4l-2-5v-4h-68z" fill="#8A9291"/>
<path transform="translate(388,574)" d="m0 0 4 1v2h6l5 3 5 4 3 6 1 8 1 5 1 7 2 10 1 8 1 9 1 5v6l1 2-2 4h-2l-1 2-1-6-2-2 1-1-2-3v-3l1-6-2-1 1-5-2-10v-5l-2-6-1-8-2-5 2-1-4-5v-4h-2v-2l-5-1-4-3-3-2z" fill="#CAC9C3"/>
<path transform="translate(644,1191)" d="m0 0h70v6h-68l-2 13-3 1 2-17z" fill="#8A9291"/>
<path transform="translate(837,1215)" d="m0 0h76v6h-76z" fill="#89908F"/>
<path transform="translate(758,1172)" d="m0 0h73v6h-71v9h-2z" fill="#8A9291"/>
<path transform="translate(459,1172)" d="m0 0h70v5l-1 1-67 1-2 8h-4l2-10z" fill="#8A9291"/>
<path transform="translate(917,1215)" d="m0 0h75l1 1v5h-76z" fill="#89908F"/>
<path transform="translate(1059,1172)" d="m0 0h70l4 13v2h-3l-2-4v-5h-68l-1-1z" fill="#899090"/>
<path transform="translate(874,1245)" d="m0 0h78l1 5-26 1h-53z" fill="#8C9594"/>
<path transform="translate(683,1173)" d="m0 0h70v6h-68l-1 8h-3z" fill="#8C9493"/>
<path transform="translate(244,1282)" d="m0 0h34l-3 10-5 13-7-1-7-10-4-1-3-5-5-4z" fill="#747575"/>
<path transform="translate(796,1245)" d="m0 0h74v6h-74z" fill="#8C9493"/>
<path transform="translate(796,1191)" d="m0 0h74v6h-74z" fill="#89908F"/>
<path transform="translate(835,1172)" d="m0 0h70v6h-68l1 9h-3z" fill="#899190"/>
<path transform="translate(1010,1324)" d="m0 0 4 1v2l-3 1h-431v-1h430z" fill="#67676D"/>
<path transform="translate(653,219)" d="m0 0h1v16l5 3 3 1 25 1-3 2-12 7-8 6-5 2h-12l3-2v-20l2-13z" fill="#090D0D"/>
<path transform="translate(949,1191)" d="m0 0h73l1 6h-73l-1-1z" fill="#898F8F"/>
<path transform="translate(984,1172)" d="m0 0h71l2 11-1 4-2-9h-69l-1-1z" fill="#89908F"/>
<path transform="translate(533,1172)" d="m0 0h69l-1 6h-66l-2 9h-2l1-9z" fill="#8A9291"/>
<path transform="translate(1221,775)" d="m0 0 8 1 7 4 4 2 3 1 3 4-1 4 3 1-1 3 2 4-2 4 2 1v8l-4 4-4-2-2-8 1-6-2-6-4-3-4-2-1-4h-8v-3l-3 3-2-2 1-6z" fill="#FAD6BB"/>
<path transform="translate(1114,1430)" d="m0 0h45l1 4h2l1-3 2 1 1 5h-2v2h-12l-1-1h-42l3-6h2z" fill="#BEBEBE"/>
<path transform="translate(874,1191)" d="m0 0h71v6h-71z" fill="#89908F"/>
<path transform="translate(909,1172)" d="m0 0h71v6h-71z" fill="#899190"/>
<path transform="translate(353,875)" d="m0 0h5l-1 4-4 8v7l5 7 7 4 8 3 4 1h14l9-3 5-4 9-15 4-1v-2l3-1 1 5-3 1-4 5-6 10-8 7-5 2-7 1h-9l-11-2-12-6-8-9-1-3v-8l3-5z" fill="#8AB3C0"/>
<path transform="translate(247,1172)" d="m0 0h58l-1 4-1 2h-52l-3 9h-7l1-6z" fill="#8A9291"/>
<path transform="translate(348,546)" d="m0 0 8 2 9 6 2 2 1 13 1 4-2 4-2-1-1-5-2-1-2-6-7-6-10-3h-4l-1 3-1-2-7 1-7 2-1-5h3 2l2-4 9-2 8 1z" fill="#FAE7B2"/>
<path transform="translate(1283,1172)" d="m0 0h58l6 12v3h-6l-4-8-52-1z" fill="#8A9292"/>
<path transform="translate(707,166)" d="m0 0 2 1-6 9-4 12-2 26-5-5-7-6-6-2-6 4-8 10-2 2 1-8 6-8 6-4h6l7 5 2-14 7-14 7-7z" fill="#646767"/>
<path transform="translate(1351,1250)" d="m0 0h20l7 17 2 5h-26l-1-4 5-5 2-4 3-5-6 2v-5h-6z" fill="#797D7C"/>
<path transform="translate(810,194)" d="m0 0 2 1-10 6-20 8-9 8-5 12-2 3-2-7v-8l5-10 8-6 5-2 21-3z" fill="#646667"/>
<path transform="translate(1020,1381)" d="m0 0h1l1 9-1-2h-93l2-4h90z" fill="#919897"/>
<path transform="translate(692,240)" d="m0 0h7l10 5 1 2h-14l-11 4-16 10-13 4h-7l-7-3-4-4 7 2h10l12-5 16-11z" fill="#636666"/>
<path transform="translate(218,1250)" d="m0 0h5l1 6 9 1 2 4-3 1-3-1 2 3h3l3 3-4 5h-24l3-9z" fill="#797D7C"/>
<path transform="translate(428,1034)" d="m0 0 3 1-7 2-11 2-31 2-79 6-56 5-6 1h-12l-8-1v-1l88-7 65-5 35-2z" fill="#84AF9F"/>
<path transform="translate(617,1429)" d="m0 0h19v1l-10 3 4 3 3 2h-45l-1-7 1-1h17z" fill="#C8CDCE"/>
<path transform="translate(782,220)" d="m0 0h2l-1 4-7 15-1 4v15l7 14 9 9 8 6v2l-5-1-11-8-9-10-3-5-2-5v-14l5-15 7-10z"/>
<path transform="translate(910,190)" d="m0 0h8l-4 4v9l4 10 6 11v16l-2 2-4-15-12-20-1-3v-9z" fill="#646767"/>
<path transform="translate(736,437)" d="m0 0 4 2 3 4v8l-4 6-5 2-8-1-4-4-1-3v-8l2-2 2 2h7l3-3z" fill="#050606"/>
<path transform="translate(897,456)" d="m0 0 4 2 3 5v7l-4 6-4 2h-7l-5-4-2-3v-9h4 9z" fill="#050505"/>
<path transform="translate(190,509)" d="m0 0h15l7 1 1 9v5h-5l-5 1h-5l-5-1h-3z" fill="#2B2D2F"/>
<path transform="translate(781,633)" d="m0 0 14 2h12l-4 2 5 8 1 2h-11l-29-4 4-3 6-4z" fill="#1B1C1C"/>
<path transform="translate(764,642)" d="m0 0 10 1 24 3h12l7 2-3 4-4 1h-24l-15-4-6-4z" fill="#B2816C"/>
<path transform="translate(448,984)" d="m0 0h1v15l-3 31-3 1-2 4-6 5-7 1-1-3 7-4 5-9 5-30z" fill="#8AB4BD"/>
<path transform="translate(757,1216)" d="m0 0h75v4h-75z" fill="#8E9796"/>
<path transform="translate(1188,869)" d="m0 0 2 2v10l2 9-1 7 3 15h-4v-3h-2l-1-2-2 1v-3l-2-1-1-10-1-9 3-9z" fill="#A7A6A1"/>
<path transform="translate(801,785)" d="m0 0 1 2v7l1 1 10-1 26-8 3 1-34 17-3 1h-7l-3-4 1-8z" fill="#EEEEED"/>
<path transform="translate(586,981)" d="m0 0h18l1 3v12h-19z" fill="#D6D8D4"/>
<path transform="translate(571,1349)" d="m0 0 4 1-1 11-8 44-3 12h-3l1-15 4-20z" fill="#5E5F64"/>
<path transform="translate(945,193)" d="m0 0h13l11 5 8 6 9 9 6 9-1 2-6-7-13-10-13-6-7-2h-14l5-5z" fill="#646667"/>
<path transform="translate(1121,989)" d="m0 0h3v3l4 4 2 7 9 12-1 4h-3l2 6 3 1-2 1-9-6-5-6-2-12-1-12z" fill="#C9C7C1"/>
<path transform="translate(1383,584)" d="m0 0h2l2 3h13v3l-7 13-9 9h-1z" fill="#2C2D30"/>
<path transform="translate(368,588)" d="m0 0h2l3 7 1 8-1 2 3 1v3l1 3-2 1 3 10 1 9 1 5 1 11 1 5v5l-4-1v-3l-2-2-1-6h2l-1-6-2-2-1-8 1-4-1-5v-4l-2-1-1-9v-5l-2-2-1-11z" fill="#CAC8BF"/>
<path transform="translate(834,450)" d="m0 0h1l-1 15-2 11-1 37-3-1-2-12 1-29 2-13z" fill="#3E3E41"/>
<path transform="translate(348,582)" d="m0 0 4 2-2 7-2 5v19l2 18 2 16v5l-4 1 1-5-1-5v-2l-2-1h2l-1-6-2-6-1-5 1-6-2-5v-5-4l-1-9v-3l2-1-1-3 3-1z" fill="#C8CED0"/>
<path transform="translate(1180,885)" d="m0 0h2v5l1 5 1 9 3 1 1 4h2l3 5-6 1-2 2-5-1-4-4-2-4-2-1 3-9z" fill="#D0A57B"/>
<path transform="translate(1127,978)" d="m0 0 3 3v2l4 2-1 2 3 12 2 3 2 6 5 5-1 3-4 2-1-4-7-6-2-4-2-2-2-9-3-1 1-4h2v-3l-2-1z" fill="#F8D6BB"/>
<path transform="translate(1031,1430)" d="m0 0h34l1 4v3 1h-33l-1-5z" fill="#C7CCCD"/>
<path transform="translate(1336,1281)" d="m0 0 7 1-1 3-6 4-1 4-3 3-4 3-2-6-5 2-5-13z" fill="#747575"/>
<path transform="translate(1e3 464)" d="m0 0 5 1v3l-8 4-6 5-2 3 4 9 1 6v9l-2 9-4 6-1-2 2-5v-19l-3-7h-2l-3 2 2-6 6-11 4-2z" fill="#3E3E40"/>
<path transform="translate(616,418)" d="m0 0 5 1 7 8h2l1 15-5 4-5 13-1 14-2-2-1-3v-9l4-13 5-8 1-5h-2v-3h-2v-3h-2l-5-5z" fill="#3C3D41"/>
<path transform="translate(1146,1013)" d="m0 0 4 2-2 3-2 1 5 2h6 3 41l1 2-1 2h-10-3l-8 1-3-1-10 1h-8l-15-3-2-8h4z" fill="#B4B5AF"/>
<path transform="translate(1007,262)" d="m0 0 8 1 6 4 7 7 6 13v5l-7-2-4-10-8-10-8-7z" fill="#090D0D"/>
<path transform="translate(1173,716)" d="m0 0 16 4h9l4-1 5 6 2 2-4 3h-7l-13-5-11-6z" fill="#090D0D"/>
<path transform="translate(1387,1288)" d="m0 0 2 3 7 16h-22l1-3 5-5 1-3h2v-4h2z" fill="#7E7D7E"/>
<path transform="translate(199,1291)" d="m0 0h4l2 4 3 3 5 6-1 3h-19l1-5z" fill="#7E7D7E"/>
<path transform="translate(606,1060)" d="m0 0h1v21h-25v-8h23z" fill="#89AFBB"/>
<path transform="translate(1028,292)" d="m0 0 4 5 4 8 1 4v13l-4-2-7-9v-2l-3-1h3z" fill="#090D0D"/>
<path transform="translate(222,772)" d="m0 0 17 1 2-1v2h8l14 2 15 3 12 3 1 4-10-2-7-2-7-1-5-1-9-2h-6l-6-1h-5l-5-1h-8l-3-1v-2z" fill="#B1B7B4"/>
<path transform="translate(666,633)" d="m0 0 4 2 9 11 6 7-3 3h-4l-5-2-2-5h-2l1-4h-2l-3-7z" fill="#F7E7A8"/>
<path transform="translate(596,933)" d="m0 0 2 1 3 15v7l-4 1-4-2-4 1-1-4z" fill="#EFDFA3"/>
<path transform="translate(333,658)" d="m0 0h2l2 5 9 1 9-3 1 2-2 7h-2l-2 3-4-1-5 1h-2l-1-2-4-2-2-2z" fill="#B6B5AC"/>
<path transform="translate(378,570)" d="m0 0h5l3 3v2l-5 2-12 6-2 4-2-2v-3l-3-1 2-6h3l3-4h7z" fill="#EEDAA4"/>
<path transform="translate(321,599)" d="m0 0 4 1 3 8-2 6h-2l2 2h-2l-2 6-4 2-5 3-2 2 2-9 7-8v-11z" fill="#A7A9A0"/>
<path transform="translate(1138,1430)" d="m0 0h21l1 4h2l1-3 2 1 1 5h-2v2h-12l-5-2h-4l-3-5z" fill="#C3C3C1"/>
<path transform="translate(317,630)" d="m0 0 4 1 4 6-1 2 2 1v5l1 5 1 6-4 4-1-5-3-6 1-3-2-6-3 2-3-3 1-5 2-2z" fill="#F3DAA2"/>
<path transform="translate(1195,868)" d="m0 0 2 3 1 7-1 4v4 7l-2 4-3-1-2-10-1-11v-4l6-1z" fill="#8DA49C"/>
<path transform="translate(873,141)" d="m0 0h9l11 4 4 3-14 2-1 2h10l6 1v1h-31l3-3 11-5-2-2-6-2z" fill="#262A2A"/>
<path transform="translate(761,1067)" d="m0 0h23l4 2-37 2-29 4-25 7h-2v-2l25-7 32-5z" fill="#191A1A"/>
<path transform="translate(1119,985)" d="m0 0 4 2-1 8 2 16-4-2-1-5-4-1-1-7h-2l-1-4 4-4h4z" fill="#D7D7D3"/>
<path transform="translate(810,1429)" d="m0 0h13l3 3 3 2 2-1-1 4h-25l3-4v-2h2z" fill="#B6B7B7"/>
<path transform="translate(422,877)" d="m0 0h8l18 2 15 4 9 5 1 4-4-1v-2l-12-4-10-2-18-2h-8l-1-3z" fill="#B2B4AE"/>
<path transform="translate(886,450)" d="m0 0h6l4 3v7l-3 3h-7l-3-4v-6z" fill="#FAFAF9"/>
<path transform="translate(725,431)" d="m0 0h6l4 3v7l-3 3h-7l-3-4v-6z" fill="#FBFBFA"/>
<path transform="translate(885,426)" d="m0 0h10l12 3 10 4-3 1-18-3h-12l-13 1 3-3 5-2z" fill="#C58E70"/>
<path transform="translate(727,407)" d="m0 0 14 1 11 4 6 5-3 1-15-5-13-2-15-1v-1z" fill="#C58E70"/>
<path transform="translate(565,1382)" d="m0 0 1 2h3l-3 21-3 12h-3l1-15z" fill="#616266"/>
<path transform="translate(1232,1431)" d="m0 0h22l-2 1-1 2-1 4-1 1h-10l-2-4-1 3-3-1h-3l2-4z" fill="#C9CBCB"/>
<path transform="translate(374,872)" d="m0 0 16 1 15 2h4l13 2-2 1-1 2-4-1-5 1-15-3h-3l-10-1h-6l-6-1v-2z" fill="#AFB7B4"/>
<path transform="translate(676,197)" d="m0 0h6l7 5 2-1v3l-3 1-8-4-7 4-8 10-2 2 1-8 6-8z" fill="#616365"/>
<path transform="translate(585,974)" d="m0 0h18l1 7h-18z" fill="#F7E7A8"/>
<path transform="translate(823,1429)" d="m0 0h19l1 8h-13v-3l-2 2-5-5z" fill="#B4B5B5"/>
<path transform="translate(337,555)" d="m0 0h3l2 4-2 3-1-1-2 2-5-1h-2l-1 2-4 5-2 3-1-5 1-6 5-5h7z" fill="#C6C7C3"/>
<path transform="translate(993,481)" d="m0 0h2l3 8 1 6v9l-2 9-4 6-1-2 2-5v-19l-3-9z" fill="#3E3F42"/>
<path transform="translate(685,1324)" d="m0 0h107v2l-8 1v-1l-99-1z" fill="#5C5D62"/>
<path transform="translate(588,1430)" d="m0 0h16l1 2-1 2h-2l-1 4h-13l-1-7z" fill="#C6CBCC"/>
<path transform="translate(816,561)" d="m0 0h6l6 3 6 1v1l-13 2-17 3 5-5z" fill="#BB8C6F"/>
<path transform="translate(1184,878)" d="m0 0h2l2 26-3 4v-3l-2-1-1-10-1-9 2-6z" fill="#C1C19B"/>
<path transform="translate(1362,1253)" d="m0 0 3 2-4 4-2 4-5 7v2h-8l3-5v-3h2l1-4 5-3z" fill="#757676"/>
<path transform="translate(616,418)" d="m0 0 5 1 7 8h2l1 15h-2l-2-5v-4h-2v-3h-2v-3h-2l-5-5z" fill="#3F4043"/>
<path transform="translate(332,561)" d="m0 0 5 1 6 2-1 3-8 1h-4l-2 4-1 5 1 3-2 2-3-7 1-6 4-6z" fill="#C7D0D1"/>
<path transform="translate(185,706)" d="m0 0 4 1v19l-6-1v-17z" fill="#545558"/>
<path transform="translate(772,556)" d="m0 0h8l9 10 1 3-5-2-17-8z" fill="#BD8D6F"/>
<path transform="translate(1303,1440)" d="m0 0 3 1v35h-3z" fill="#5A5C5D"/>
<path transform="translate(827,1069)" d="m0 0h13l18 3 25 7-1 2-11-3-18-4-13-2-16-1z" fill="#1B1C1C"/>
<path transform="translate(450,965)" d="m0 0h1v10l-1 13-2-1-4 12h-1l1-14 1-5v-3l2-6z" fill="#80A899"/>
<path transform="translate(326,596)" d="m0 0h5l2 9 1 4-2 9-3-1-1-5-2-5z" fill="#91B8C0"/>
<path transform="translate(672,582)" d="m0 0 2 3 5 28 1 9-2-2-5-18-2-12v-6z"/>
<path transform="translate(445,430)" d="m0 0h18l4 1h3l1 4h-2l-1 2h-3-3l-2-2-8 1-4-4z" fill="#FCE6CA"/>
<path transform="translate(586,981)" d="m0 0h18v6h-18z" fill="#EBE7E0"/>
<path transform="translate(204,509)" d="m0 0 4 1 1 3-3 1 1 3-3 1v-4h-2v-4zm0 4m-4 1h2l1 3-3 1zm-8 2 8 2 1 3-2 4-7-2zm10 2h2l1 3h-3z" fill="#2A2C2E"/>
<path transform="translate(1368,1017)" d="m0 0h1v5l-6 2-10 1h-15v-3l5-1h17l5-2z" fill="#B3B4AE"/>
<path transform="translate(1121,577)" d="m0 0 5 5 6 10 1 3-4-1-4-4-5-1-2-4 1-6h2z" fill="#FAEFC9"/>
<path transform="translate(1140,710)" d="m0 0 4 1v2l-15 6-4 1v-9z" fill="#090D0D"/>
<path transform="translate(1301,660)" d="m0 0 2 3-13 7-9 3h-3l-1 2h-3l-5-1 1-3h3l1-2 5 1 18-6v-2h3z" fill="#FADAC1"/>
<path transform="translate(1115,562)" d="m0 0 2 3v2l2 1 2 9h-6-3l-4-3 1-5 4-1z" fill="#FBF1CE"/>
<path transform="translate(478,1431)" d="m0 0h9l4 4-1 3h-16l1-4z" fill="#C4C4C2"/>
<path transform="translate(562,758)" d="m0 0 10 1 8 4 10 9v3l-9-8-10-5-8-1-9 2-7 4 2-4 9-4z" fill="#1F1F1F"/>
<path transform="translate(892,634)" d="m0 0h1l-1 9-3 9-7 11-3 2 3-9z" fill="#000101"/>
<path transform="translate(326,611)" d="m0 0 3 1 3 7 2 4v7l-2 5h-2l-1-5 1-5-5-5h-2l1-5-1-2 3-1z" fill="#B1B4AF"/>
<path transform="translate(391,1430)" d="m0 0h9l3 5-1 4h-10l-1-5z" fill="#C9CACA"/>
<path transform="translate(788,558)" d="m0 0 7 3h14l-5 6-2 1h-7l-5-5z" fill="#B9866E"/>
<path transform="translate(1130,1430)" d="m0 0h8l6 4h5l1 4h-12l-1-2h-3-1l-4 1v-4z" fill="#C1C1C0"/>
<path transform="translate(334,596)" d="m0 0 2 1 1 3 3 3-1 4 1 2-4 5-5 1 2-1v-8l-2-7z" fill="#A0C1CE"/>
<path transform="translate(1020,1381)" d="m0 0h1l1 9-1-2h-24l1-3 9-1h13z" fill="#8F9796"/>
<path transform="translate(368,588)" d="m0 0h2l3 7 1 8-1 2 3 1v3l-4 3-2-2v-8l-2-2-1-11zm2 24 2 1z" fill="#CAC8C1"/>
<path transform="translate(1117,587)" d="m0 0 6 3 1-2h2l3 4v2l4 1-1 2h-3l-2-1v-2l-3 1-4 2-1-2-2 1-3-4 1-2h2z" fill="#FDF3D2"/>
<path transform="translate(341,554)" d="m0 0 7 1 6 2 1 3-4 1-2 4-5-3-3-3-1-4z" fill="#D8DAD6"/>
<path transform="translate(323,579)" d="m0 0 3 1 3 9-1 9h-2l1 3-4 1-3-5 1-4 3-1 1-8z" fill="#B3B5AE"/>
<path transform="translate(930,1384)" d="m0 0h28v1l-8 1-5 2h-17z" fill="#989A9A"/>
<path transform="translate(356,559)" d="m0 0 1 2 4 2 3 8 1 4-2 5-2-1v-3l-3-3-1-7h-2l-1-3z" fill="#DFDED7"/>
<path transform="translate(1399,587)" d="m0 0 2 2-8 14-9 9-1-4h2v-2h2v-2h2l2-6 4-8h2v-2z" fill="#2D2E31"/>
<path transform="translate(321,599)" d="m0 0 4 1 3 8-2 6-6-1v-12z" fill="#8AAE9E"/>
<path transform="translate(1122,976)" d="m0 0 4 3v9l-3 1-4-4-2 1-2-3-3-2 2-1 5 2-2-4 4-1z" fill="#F6D8AA"/>
<path transform="translate(1376,814)" d="m0 0 5 1v13l-1 2h-2l-1 2-1-1z" fill="#787C7B"/>
<path transform="translate(555,498)" d="m0 0 1 2h2l1-2 6 2-2 4h-3l-5-1-6 2-3 2h-4l1-3 4-2 5-3z" fill="#FCD5A8"/>
<path transform="translate(761,1067)" d="m0 0h23l4 2-24 1h-17v-1z" fill="#1F1F1F"/>
<path transform="translate(1236,526)" d="m0 0 2 3-1 4-5 1-1 2-5 4-1 2h-2l2-9 6-4 3 1z" fill="#E8E5DD"/>
<path transform="translate(1138,1430)" d="m0 0h17l-1 3-2 4h-3-6l-3-5z" fill="#C3C3C1"/>
<path transform="translate(1146,1013)" d="m0 0 4 2-2 3-2 1 5 2h6l3 3-1 2-15-3-2-8h4z" fill="#BBB6AD"/>
<path transform="translate(333,658)" d="m0 0h2l2 5 4 2h-2v2h2l2 5-4 1-1-2-4-2-2-2z" fill="#B4B4A7"/>
<path transform="translate(265,777)" d="m0 0 9 1 6 2 10 2 1 4-10-2-7-2-7-1-3-2z" fill="#B2B5B1"/>
<path transform="translate(1131,496)" d="m0 0 1 2h2l1 17 1 5-1 2-3-1 1-3-2-7-1-4v-3l-1-6h2z" fill="#F7F5F1"/>
<path transform="translate(915,179)" d="m0 0h13l6 4-2 1-4-1h-15l-6 2 5-5z" fill="#606364"/>
<path transform="translate(348,629)" d="m0 0 2 1 2 19v5l-4 1 1-5-1-5v-2l-2-1h2l-1-6v-6z" fill="#C8CFD1"/>
<path transform="translate(1380,1293)" d="m0 0 3 1-2 5-5 7-7 1 2-4 5-5 1-2 1-1h2z" fill="#7B7D7D"/>
<path transform="translate(1245,668)" d="m0 0 1 2 5 1 5-1 2 2 2-2 2 2h6v2l-11 1-2-1-1 2v-2l-9-1-3-2z" fill="#F1D6C0"/>
<path transform="translate(373,611)" d="m0 0 4 1-2 1 3 10 1 7-5-1-1-8v-4l-2-1z" fill="#C7C7BF"/>
<path transform="translate(409,666)" d="m0 0 3 3-1 2-4 1v2l-3-1v-2l-8 4-3-2h2v-3l6-2 3 2 1-2zm-6 8h2l-1 2z" fill="#EAD0AC"/>
<path transform="translate(1192,882)" d="m0 0 4 1 1 3v7l-2 4-3-1-1-8v-5z" fill="#87AB9E"/>
<path transform="translate(425,662)" d="m0 0 3 4-2 2-5 3-7-2-1 2-1-5 3 1 3-3h6z" fill="#FAD7B4"/>
<path transform="translate(343,613)" d="m0 0 5 2 1 10-1 8-3-1v-5l-1-2 1-6-2-5z" fill="#C2CDD1"/>
<path transform="translate(1179,908)" d="m0 0 7 1 3 4-1 2-4 2-4-1-2-6z" fill="#D19E75"/>
<path transform="translate(317,630)" d="m0 0 4 1 1 5-5 6-3-1-1-3 1-4 2-2z" fill="#F2D5B5"/>
<path transform="translate(1119,997)" d="m0 0h3l2 14-4-2-1-5h-2l1-6z" fill="#C9D0D1"/>
<path transform="translate(333,630)" d="m0 0h2l1 6-1 1 2 7 1 5-2 1-2-1-2-8v-9z" fill="#C7CFD1"/>
<path transform="translate(1480,1431)" d="m0 0h37v1l-22 1-4 1-1-1h-5l-5 2z" fill="#D4D5D4"/>
<path transform="translate(586,978)" d="m0 0h17l1 3h-18z" fill="#FCE2B7"/>
<path transform="translate(1266,930)" d="m0 0h3l-2 5-3 6-5-1 1-6z" fill="#A9986E"/>
<path transform="translate(1256,1462)" d="m0 0h2v2l4 2-2 2v7h-4l-1-10z" fill="#5B5D60"/>
<path transform="translate(1138,534)" d="m0 0 2 3 2 9 1 4h-5l-2-13-1-2z" fill="#EFEADF"/>
<path transform="translate(1245,523)" d="m0 0 1 2h2l1-2h2l2 2 2 1-1 2-5 1h-3l-6 3-1-3 2-5 4 3z" fill="#EDE9E2"/>
<path transform="translate(680,243)" d="m0 0h5l-5 4-13 9-1-2 5-5z" fill="#2B2E2F"/>
<path transform="translate(332,549)" d="m0 0 2 1zm-3 1 4 4v3l-7 1-3 1-1-5h3 2z" fill="#F4E3B5"/>
<path transform="translate(375,629)" d="m0 0 4 2 1 7-2 5-2-2-2-4-1-7z" fill="#C9C8C1"/>
<path transform="translate(988,537)" d="m0 0v3l-9 9-2 1h-7l1-5 1 2 9-3z" fill="#525151"/>
<path transform="translate(862,1429)" d="m0 0h6l-2 4-5 1-1 2-1 1h-6v-3l7-2z" fill="#B6B7B7"/>
<path transform="translate(291,633)" d="m0 0 1 2h5l5-2-2 5h-6l-5 3-1-7 3 1z" fill="#BE886E"/>
<path transform="translate(619,493)" d="m0 0 4 5 4 6 7 3v3h-5l-6-7-4-7z" fill="#4F4F50"/>
<path transform="translate(1036,494)" d="m0 0 2 1-2 1zm-3 1 3 1-2 5 4 1-1 4-3 1-2 3v-7l-2-4 2-1z" fill="#EFECE9"/>
<path transform="translate(478,1431)" d="m0 0 7 1v3h-3l-2 2v1h-6l1-4z" fill="#C2C2C0"/>
<path transform="translate(328,620)" d="m0 0 5 1 1 2v7l-2 5h-2l-1-5 1-5z" fill="#B8BCB9"/>
<path transform="translate(334,596)" d="m0 0 2 1 1 3 3 3-2 2h-2-4l-1-6z" fill="#9DBFCD"/>
<path transform="translate(1117,587)" d="m0 0 4 2-1 3h2v2l2 1-4 2-1-2-2 1-3-4 1-2h2z" fill="#FDF2CF"/>
<path transform="translate(1468,1259)" d="m0 0 2 1v5l-4 5v-2h-2l-1-4 3-4z" fill="#C9CBCB"/>
<path transform="translate(356,868)" d="m0 0h2v2l5 1-2 4-6 1-2-1v-2l2-2z" fill="#8BB4B8"/>
<path transform="translate(1268,673)" d="m0 0 8 2-2 2h-7l-5-1-4 1h-2l-1-3z" fill="#FBE4B2"/>
<path transform="translate(501,1429)" d="m0 0h4l4 7v2h-5l-3-5z" fill="#C2C2C1"/>
<path transform="translate(990,1384)" d="m0 0h17v1l-9 1-1 2h-10z" fill="#979999"/>
<path transform="translate(253,1435)" d="m0 0 2 1zm-2 0 2 1v2l-2 1h-13l-2-3h9l2 1z" fill="#CCD1D1"/>
<path transform="translate(562,758)" d="m0 0h6l-1 3-10 1-10 5 2-4 9-4z" fill="#1C1C1C"/>
<path transform="translate(677,1221)" d="m0 0h3l-2 19h-2v-10z" fill="#898F8E"/>
<path transform="translate(1273,573)" d="m0 0 3 1 1 4-2 3 2 1-6 1v-3-4h2z" fill="#E9E6E2"/>
<path transform="translate(1044,477)" d="m0 0 2 1zm-2 1 3 1-1 3-6 1-1 2-6-1 1-2 4-1z" fill="#F8F6F1"/>
<path transform="translate(598,1222)" d="m0 0h1l-1 13-1 5h-2l1-14z" fill="#8B9291"/>
<path transform="translate(1125,582)" d="m0 0 4 4 4 9-4-1-5-8z" fill="#EAE0C1"/>
<path transform="translate(1368,1435)" d="m0 0h9l1 4h-11l-1-2h2z" fill="#CCD1D1"/>
<path transform="translate(1138,1431)" d="m0 0 4 2 5 1h2l1 4h-11z" fill="#BDBEBD"/>
<path transform="translate(842,1429)" d="m0 0 3 2h3 2l-2 6h-5z" fill="#B6B7B7"/>
<path transform="translate(205,1135)" d="m0 0h9l7 2v1h-20v-2z" fill="#424648"/>
<path transform="translate(1282,996)" d="m0 0 3 3 3 1-4 6-5-4 1-2z" fill="#B18F6D"/>
<path transform="translate(374,872)" d="m0 0 12 1-2 3h-8l-6-1v-2z" fill="#AEB7B5"/>
<path transform="translate(679,654)" d="m0 0 3 1 1 5 3 1-3 3-5-3v-6z" fill="#FCE9AC"/>
<path transform="translate(356,559)" d="m0 0 1 2 4 2 2 7-2 1-3-5h-3l-1-3z" fill="#E4E2DC"/>
<path transform="translate(1202,913)" d="m0 0h6v3l-6 2-5-1 1-3z" fill="#AA9B73"/>
<path transform="translate(1317,650)" d="m0 0h2l-2 4-4 2v2l-9 6v-3l12-9z" fill="#FCE8B1"/>
<path transform="translate(356,565)" d="m0 0 2 1 1 9 3 1-4 4-2-2 1-4-1-6-2-1z" fill="#CCD2D2"/>
<path transform="translate(391,1430)" d="m0 0 4 4v1l4 4h-7l-1-5z" fill="#C9C9C7"/>
<path transform="translate(1139,1009)" d="m0 0 4 2 2 4-5 3-1-4-2-1v-2h2z" fill="#E5CBB6"/>
<path transform="translate(252,775)" d="m0 0 12 1 1 3-4 1-7-2-3-1z" fill="#B2B7B2"/>
<path transform="translate(355,1429)" d="m0 0 23 1-1 3-4-1-19-1z" fill="#C9C8C6"/>
<path transform="translate(1147,1430)" d="m0 0h8l-1 3-2 4h-3l-1-4z" fill="#C5C5C3"/>
<path transform="translate(1200,884)" d="m0 0 4 2-1 3-7 2v-5z" fill="#8D9D98"/>
<path transform="translate(371,602)" d="m0 0 2 1v2l3 1v3l-4 3-2-2v-6zm-1 10 2 1z" fill="#CCC9C5"/>
<path transform="translate(337,545)" d="m0 0h5 3l3 1-2 4-6-1-3-2z" fill="#FCE9AE"/>
<path transform="translate(720,1255)" d="m0 0h1l-1 15-1 2h-2l1-12z" fill="#898F8F"/>
<path transform="translate(186,1118)" d="m0 0 3 1v9h-2l-2-4v-5z" fill="#636369"/>
<path transform="translate(1130,1020)" d="m0 0 7 6 1 3-5 1-3-7z" fill="#C6D2D2"/>
<path transform="translate(1393,571)" d="m0 0h3v2h-2l1 3-3 1zm-3 6h2l1 7h-3z" fill="#2A2C2E"/>
<path transform="translate(1162,1431)" d="m0 0 3 1 1 5h-2v2h-3l-1-5h2z" fill="#C1C1C0"/>
<path transform="translate(823,1429)" d="m0 0h7l1 4-3 3-5-5z" fill="#B3B3B3"/>
<path transform="translate(392,1430)" d="m0 0h5l3 7h-3l-4-1 1-3z" fill="#C9CCCB"/>
<path transform="translate(277,633)" d="m0 0 5 1 4-1 1 4h-3l-1 2-3-3-1 2-3-4z" fill="#BF886E"/>
<path transform="translate(323,579)" d="m0 0 3 1 3 9v3l-3 1v-6l-3-6z" fill="#B8BCBA"/>
<path transform="translate(925,228)" d="m0 0h2v7l-1 5h-2v-11z" fill="#2D3031"/>
<path transform="translate(321,599)" d="m0 0 4 1 1 3-4 5h-2v-7z" fill="#8EAD9F"/>
<path transform="translate(1397,571)" d="m0 0 2 2-1 4h-2zm-3 6h2l1 7h-3z" fill="#2A2C2E"/>
<path transform="translate(320,1440)" d="m0 0h7l-4 2-1 4h-3l-1-4zm-2 7 1 2-3-1z" fill="#5B5D60"/>
<path transform="translate(518,1432)" d="m0 0 3 3-1 3h-5l-1-5z" fill="#BEBFBF"/>
<path transform="translate(1273,669)" d="m0 0h3l2 1v2l-4 3-5-1 1-3h3z" fill="#F5DAC5"/>
<path transform="translate(1301,660)" d="m0 0 2 3-9 5h-3l1-3 5-1v-2h3z" fill="#F9D9BE"/>
<path transform="translate(368,588)" d="m0 0h2l3 7h-6v-6z" fill="#D1CBB8"/>
<path transform="translate(1116,569)" d="m0 0 2 4 3 1v3l-6-1z" fill="#F7EBC5"/>
<path transform="translate(976,1385)" d="m0 0h9l1 3h-11z" fill="#959998"/>
<path transform="translate(565,1199)" d="m0 0 1 2h2l-2 10-3-1z" fill="#888E8D"/>
<path transform="translate(1180,885)" d="m0 0h2v5l1 4-4-1-1 2 1-7z" fill="#CCAC82"/>
<path transform="translate(409,876)" d="m0 0 13 1-2 1-1 2-8-1z" fill="#B3B6B2"/>
<path transform="translate(839,786)" d="m0 0 3 1-13 6v-4z" fill="#C6C6C3"/>
<path transform="translate(388,574)" d="m0 0 4 1v2l3 1 2 5-9-6zm7 3h2l-1 2z" fill="#C9C9B1"/>
<path transform="translate(378,570)" d="m0 0h5l3 3v2h-2v-2l-6 1z" fill="#F5E0A3"/>
<path transform="translate(190,511)" d="m0 0 2 1 1 8-1 4h-2z" fill="#2C2D30"/>
<path transform="translate(549,500)" d="m0 0 3 3-6 4h-4l1-3 4-2z" fill="#FCD1A6"/>
<path transform="translate(1131,1433)" d="m0 0 6 2 1 3h-11l2-2 3-1z" fill="#BBBCBC"/>
<path transform="translate(1405,574)" d="m0 0h3v9l-5-5v-3l3 2z" fill="#2C2D30"/>
<path transform="translate(1e3 470)" d="m0 0 2 1-10 10-2-1 5-6z" fill="#AF886F"/>
</svg>
